<?xml version="1.0" encoding="UTF-8" standalone="no"?>
<svg
   xmlns:dc="http://purl.org/dc/elements/1.1/"
   xmlns:cc="http://creativecommons.org/ns#"
   xmlns:rdf="http://www.w3.org/1999/02/22-rdf-syntax-ns#"
   xmlns:svg="http://www.w3.org/2000/svg"
   xmlns="http://www.w3.org/2000/svg"
   xmlns:sodipodi="http://sodipodi.sourceforge.net/DTD/sodipodi-0.dtd"
   xmlns:inkscape="http://www.inkscape.org/namespaces/inkscape"
   inkscape:export-ydpi="96"
   inkscape:export-xdpi="96"
   inkscape:export-filename="C:\Users\focon\Desktop\logo_p2ac\noir.png"
   sodipodi:docname="blanc.svg"
   inkscape:version="1.0 (4035a4fb49, 2020-05-01)"
   id="svg8"
   version="1.1"
   viewBox="0 0 1189 841"
   height="841mm"
   width="1189mm">
  <defs
     id="defs2" />
  <sodipodi:namedview
     inkscape:window-maximized="1"
     inkscape:window-y="-8"
     inkscape:window-x="1912"
     inkscape:window-height="1017"
     inkscape:window-width="1920"
     showgrid="false"
     inkscape:document-rotation="0"
     inkscape:current-layer="layer1"
     inkscape:document-units="mm"
     inkscape:cy="551.51453"
     inkscape:cx="5655.1269"
     inkscape:zoom="0.0875"
     inkscape:pageshadow="2"
     inkscape:pageopacity="0.0"
     borderopacity="1.0"
     bordercolor="#666666"
     pagecolor="#ffffff"
     id="base" />
  <metadata
     id="metadata5">
    <rdf:RDF>
      <cc:Work
         rdf:about="">
        <dc:format>image/svg+xml</dc:format>
        <dc:type
           rdf:resource="http://purl.org/dc/dcmitype/StillImage" />
        <dc:title></dc:title>
      </cc:Work>
    </rdf:RDF>
  </metadata>
  <g
     id="layer1"
     inkscape:groupmode="layer"
     inkscape:label="Calque 1">
    <path
       id="path26"
       d="m 325.32131,633.63625 c 0,-0.13843 1.63537,-4.19171 3.63417,-9.00729 l 3.63416,-8.75559 -6.93773,-17.1646 c -9.08382,-22.47423 -8.55602,-20.03713 -4.28603,-19.79046 l 3.5502,0.20509 5.41029,14.2317 c 2.97566,7.82744 5.57259,14.39013 5.77095,14.58377 0.19837,0.19364 2.88668,-6.28623 5.97402,-14.39969 l 5.61335,-14.75176 h 3.2654 c 1.79597,0 3.2654,0.13115 3.2654,0.29144 0,0.1603 -4.5655,11.42399 -10.14556,25.03043 -5.58007,13.60644 -10.60218,25.8729 -11.16026,27.25882 -0.97856,2.43008 -1.13178,2.51984 -4.30153,2.51984 -1.80775,0 -3.28683,-0.11327 -3.28683,-0.2517 z m 404.51851,-26.96259 v -27.21429 h 3.35979 3.35979 v 3.09488 3.09487 l 1.95452,-2.09232 c 7.8947,-8.45128 23.07167,-5.29319 28.06062,5.83897 1.71148,3.81897 1.58199,13.04016 -0.23935,17.04696 -4.91819,10.81942 -18.54261,14.10989 -26.82233,6.47794 l -2.95346,-2.7224 v 11.84484 11.84484 h -3.35979 -3.35979 z m 24.20708,3.52778 c 6.67294,-3.37506 9.26864,-11.80739 5.78414,-18.78986 -2.04248,-4.09271 -3.79817,-5.55387 -8.03527,-6.68711 -7.65588,-2.04763 -15.18187,4.41322 -15.22159,13.06733 -0.0269,5.79291 2.76148,10.36637 7.71273,12.65152 3.57065,1.64794 6.14996,1.58402 9.75999,-0.24188 z m -630.31723,6.25973 c -8.42852,-2.56384 -13.27212,-10.41023 -12.61709,-20.43904 0.68864,-10.54326 7.6005,-17.23471 17.80241,-17.23471 4.29484,0 7.16368,1.09595 10.47161,4.00034 l 2.45166,2.15259 0.1873,-9.29207 0.18729,-9.29208 3.1918,-0.20481 3.1918,-0.2048 v 25.23523 25.23523 h -3.35979 -3.35979 v -3.11443 -3.11443 l -1.45891,1.8547 c -3.09485,3.93447 -11.21302,6.08378 -16.68829,4.41828 z m 12.90395,-7.10754 c 1.39088,-0.92044 3.13961,-2.87067 3.88607,-4.33385 1.87368,-3.67271 1.84271,-10.02203 -0.0681,-13.96931 -4.27381,-8.82852 -16.9633,-8.90609 -21.43998,-0.13107 -1.57542,3.08807 -1.78724,9.65818 -0.41653,12.92002 1.18771,2.8264 4.90275,6.40461 7.46967,7.19456 3.05993,0.94168 7.72835,0.19944 10.56891,-1.68035 z m 31.75504,6.08602 c -2.15266,-2.15265 -2.14105,-5.05472 0.0305,-7.63551 1.32158,-1.57061 1.67989,-2.74335 1.67989,-5.4982 0,-2.75486 -0.35831,-3.9276 -1.67989,-5.49821 -0.96632,-1.1484 -1.6799,-2.84381 -1.6799,-3.9913 0,-2.60491 2.65975,-5.29356 5.23666,-5.29356 1.63191,0 2.66692,-0.91987 6.55406,-5.82488 3.86894,-4.88204 4.62694,-6.25643 4.683,-8.49105 0.0508,-2.02554 0.51058,-3.04781 1.91342,-4.25448 2.13174,-1.83364 3.75599,-1.98659 6.42724,-0.60524 2.14532,1.10939 2.73589,2.23859 2.73589,5.23117 0,1.52299 1.20044,3.64668 4.52692,8.00854 3.70505,4.85826 4.85316,5.93594 6.32386,5.93594 1.19454,0 2.4001,0.71681 3.59611,2.13818 2.17696,2.58717 1.91858,5.51665 -0.67302,7.63044 -1.40395,1.14512 -1.67863,1.94757 -1.67863,4.90393 0,2.92844 0.28828,3.78858 1.68061,5.01444 2.59513,2.28485 2.84422,5.15829 0.67104,7.74096 -1.38295,1.64354 -2.33648,2.13818 -4.12183,2.13818 -5.00548,0 -7.53321,-6.03313 -3.94146,-9.4074 1.40929,-1.32396 1.67647,-2.1817 1.65866,-5.3248 -0.0169,-2.98784 -0.35063,-4.12087 -1.64767,-5.59452 l -1.62643,-1.84788 h -10.37651 -10.37651 l -2.08693,1.94949 c -1.79877,1.6803 -2.08694,2.41545 -2.08694,5.32398 0,2.85348 0.31124,3.68572 2.01587,5.39035 3.83924,3.83924 1.63536,9.51078 -3.69577,9.51078 -1.66594,0 -2.92354,-0.5106 -4.06228,-1.64935 z m 5.6715,-2.6332 c 1.10428,-1.33058 0.18378,-3.10898 -1.60921,-3.10898 -0.84486,0 -1.72487,0.4919 -1.95557,1.09311 -0.47064,1.22644 0.66878,2.93864 1.95557,2.93864 0.46386,0 1.188,-0.41525 1.60921,-0.92277 z m 32.19026,0.11642 c 1.06246,-1.06246 1.01773,-1.5741 -0.24826,-2.84009 -0.79605,-0.79606 -1.37262,-0.8844 -2.35185,-0.36033 -1.26774,0.67847 -1.74205,2.66602 -0.84927,3.55879 0.71317,0.71317 2.57084,0.52016 3.44938,-0.35837 z m 0.43,-19.15353 c 0.55351,-1.4424 -0.90113,-2.99243 -2.5818,-2.75112 -1.77782,0.25526 -2.24604,2.5403 -0.74537,3.63762 1.3346,0.97589 2.75805,0.59662 3.32717,-0.8865 z m -32.2136,-0.4616 c 0,-1.99371 -2.08535,-2.97958 -3.43907,-1.62585 -1.60804,1.60804 -0.70684,3.37341 1.58736,3.10952 1.29308,-0.14873 1.85171,-0.59633 1.85171,-1.48367 z m 25.18548,-3.26503 c -0.007,-0.46197 -1.81856,-3.15137 -4.02545,-5.97644 -3.65649,-4.68072 -4.25246,-5.15938 -6.71649,-5.39436 -2.67347,-0.25496 -2.75314,-0.19583 -7.06185,5.24115 -2.39683,3.02446 -4.35788,5.8299 -4.35788,6.23431 0,0.5027 3.50714,0.73528 11.0873,0.73528 8.42876,0 11.08421,-0.2014 11.07437,-0.83994 z m -9.0585,-16.55772 c 0,-2.32231 -2.14314,-3.48394 -3.3731,-1.82829 -1.27736,1.71943 -0.11949,3.93216 1.90666,3.64371 1.0402,-0.14808 1.46644,-0.67576 1.46644,-1.81542 z m 80.2946,42.97618 c -8.42852,-2.56384 -13.27213,-10.41023 -12.61709,-20.43904 0.68864,-10.54326 7.6005,-17.23471 17.8024,-17.23471 4.30147,0 7.16386,1.0961 10.49092,4.0173 l 2.47097,2.16953 v -2.75744 -2.75744 h 3.35979 3.35979 v 18.47884 18.47884 h -3.35979 -3.35979 v -3.11443 -3.11443 l -1.45891,1.8547 c -3.09485,3.93447 -11.21303,6.08378 -16.68829,4.41828 z m 12.90395,-7.10754 c 1.39088,-0.92044 3.13961,-2.87067 3.88606,-4.33385 1.87368,-3.67271 1.84271,-10.02203 -0.0681,-13.96931 -4.27381,-8.82852 -16.9633,-8.90609 -21.43999,-0.13107 -1.57541,3.08807 -1.78723,9.65818 -0.41652,12.92002 1.18771,2.8264 4.90275,6.40461 7.46967,7.19456 3.05992,0.94168 7.72835,0.19944 10.56891,-1.68035 z m 82.58149,6.86753 c -1.25882,-0.40185 -3.23115,-1.67304 -4.38298,-2.82486 -2.04204,-2.04204 -4.0333,-6.71824 -3.33912,-7.84145 0.19073,-0.3086 1.65686,-0.56108 3.25808,-0.56108 2.57084,0 2.96231,0.20322 3.34746,1.73776 0.23988,0.95577 1.16606,2.46768 2.05817,3.35979 1.35966,1.35966 2.28405,1.62202 5.71486,1.62202 3.44953,0 4.35207,-0.25924 5.74218,-1.64935 2.09908,-2.09908 2.15761,-5.03882 0.13745,-6.90333 -0.8674,-0.80057 -4.37639,-2.14578 -8.23148,-3.15564 -3.69577,-0.96812 -7.47553,-2.30229 -8.39947,-2.96481 -2.49871,-1.79174 -4.25603,-5.75929 -3.74871,-8.46353 1.05215,-5.60847 5.87901,-9.22573 12.908,-9.6733 8.19371,-0.52174 13.16009,2.79493 14.66766,9.79541 l 0.4703,2.18386 h -3.35979 c -3.18368,0 -3.38289,-0.10522 -3.80074,-2.00768 -0.68284,-3.10892 -3.23925,-4.71189 -7.5145,-4.71189 -2.96417,0 -3.94033,0.30464 -5.28504,1.64935 -2.09729,2.09729 -2.15553,5.03256 -0.13745,6.92778 0.8954,0.84089 4.2326,2.12665 8.18407,3.15316 7.31925,1.90139 10.88924,4.05386 11.5216,6.94675 0.21852,0.99972 0.52619,2.22803 0.68369,2.72957 0.15751,0.50155 -0.0232,2.06143 -0.40147,3.4664 -0.82982,3.08169 -4.34783,6.36125 -7.87429,7.34055 -3.17782,0.88249 -9.20739,0.80577 -12.21848,-0.15548 z m 37.90992,-0.20785 c -3.2237,-1.17985 -7.3125,-4.9891 -9.30378,-8.66769 -1.2158,-2.246 -1.45497,-3.7924 -1.45497,-9.40741 0,-5.61113 0.23969,-7.16295 1.45302,-9.40741 4.4602,-8.25058 14.09921,-11.8038 23.41235,-8.63049 6.74195,2.2972 11.49222,9.74209 10.95631,17.17132 l -0.20792,2.88245 -14.70084,0.18134 -14.70083,0.18133 0.40419,2.49074 c 0.82427,5.07936 5.39568,8.90585 10.63959,8.90585 4.24228,0 7.36979,-1.34002 9.23233,-3.95572 1.32237,-1.8571 1.86152,-2.0919 4.80359,-2.0919 1.82272,0 3.31403,0.16621 3.31403,0.36935 0,1.04179 -2.16105,4.24716 -4.1424,6.14422 -4.8228,4.61761 -13.14124,6.23617 -19.70467,3.83402 z m 18.45665,-21.60288 c -0.0288,-2.29869 -2.54952,-6.70807 -4.71706,-8.2515 -2.8047,-1.99712 -8.15938,-2.5236 -11.4944,-1.13014 -2.98085,1.24548 -5.88408,4.93698 -6.40439,8.14325 l -0.39179,2.41432 h 11.5112 c 10.5207,0 11.50993,-0.10118 11.49644,-1.17593 z m 45.03158,22.05074 c -8.42852,-2.56384 -13.27213,-10.41023 -12.61709,-20.43904 0.68863,-10.54326 7.6005,-17.23471 17.8024,-17.23471 4.29485,0 7.16369,1.09595 10.47161,4.00034 l 2.45167,2.15259 0.18729,-9.29207 0.1873,-9.29208 3.1918,-0.20481 3.1918,-0.2048 v 25.23523 25.23523 h -3.35979 -3.35979 v -3.11443 -3.11443 l -1.45891,1.8547 c -3.09485,3.93447 -11.21303,6.08378 -16.68829,4.41828 z m 12.90395,-7.10754 c 1.39088,-0.92044 3.13961,-2.87067 3.88606,-4.33385 1.87368,-3.67271 1.84271,-10.02203 -0.0681,-13.96931 -4.27381,-8.82852 -16.9633,-8.90609 -21.43998,-0.13107 -1.57542,3.08807 -1.78723,9.65818 -0.41653,12.92002 1.18771,2.8264 4.90275,6.40461 7.46967,7.19456 3.05993,0.94168 7.72835,0.19944 10.56891,-1.68035 z m 30.44166,6.46144 c -1.4783,-0.68444 -3.50763,-2.11839 -4.5096,-3.18657 -3.33508,-3.55541 -3.88987,-6.52518 -3.88987,-20.82239 v -13.01869 h 2.96087 2.96087 l 0.24112,12.5992 c 0.28502,14.89309 0.81737,16.66932 5.70502,19.03539 4.83008,2.3382 10.02527,1.03261 12.81721,-3.22106 0.99617,-1.51773 1.23889,-3.9016 1.52126,-14.9417 l 0.33598,-13.13585 3.1918,-0.20481 3.1918,-0.20481 v 18.85164 18.85163 h -3.35979 -3.35979 v -2.28547 -2.28547 l -2.06875,1.93251 c -3.65402,3.41336 -10.77418,4.33468 -15.73813,2.03645 z m 68.42154,0.34519 c -3.9927,-1.30327 -7.02247,-3.32393 -10.2756,-6.85316 -4.57682,-4.96527 -5.73324,-8.20717 -5.73324,-16.07259 0,-5.86421 0.2265,-7.20269 1.77932,-10.51477 2.2659,-4.83306 6.39138,-8.95853 11.22443,-11.22444 3.34982,-1.57051 4.62316,-1.77931 10.85075,-1.77931 6.35511,0 7.43317,0.18544 10.8592,1.86789 3.92425,1.92713 7.75649,5.58579 9.61475,9.17927 l 1.06321,2.05601 h -3.7963 c -3.65648,0 -3.89423,-0.11125 -6.4554,-3.02089 -3.62387,-4.11694 -8.34545,-5.57563 -14.60336,-4.51159 -5.33782,0.90761 -9.01372,3.35272 -11.78525,7.83924 -1.90896,3.09018 -2.03177,3.69819 -2.03177,10.05858 0,6.21387 0.15537,7.03392 1.89281,9.98971 5.73602,9.75837 20.39158,11.28612 27.13942,2.82913 1.7592,-2.20477 2.12463,-2.35345 5.78457,-2.35347 l 3.90676,-2e-5 -1.55396,2.76488 c -3.598,6.40179 -10.55115,10.15941 -19.36272,10.46401 -3.53073,0.12204 -6.78306,-0.1523 -8.51762,-0.71848 z m 47.49116,-0.42686 c -6.74391,-3.14081 -10.13757,-8.32346 -10.6082,-16.20039 -0.41499,-6.94563 1.02886,-11.23025 5.18497,-15.38635 3.73106,-3.73107 8.01087,-5.38034 13.77442,-5.30812 7.19334,0.0901 12.88241,3.38615 16.10423,9.33016 5.22776,9.64482 1.54505,22.16855 -7.96225,27.07708 -4.08352,2.1083 -12.48024,2.35654 -16.49317,0.48762 z m 13.40933,-5.34876 c 8.93098,-4.55624 8.95627,-20.23343 0.0403,-24.97612 -5.70055,-3.0323 -13.36599,-0.58695 -16.14312,5.14982 -1.22611,2.53283 -1.43796,3.94863 -1.24046,8.29012 0.27649,6.07767 2.21562,9.83566 6.0501,11.72493 3.08901,1.52196 8.10421,1.43814 11.29318,-0.18875 z m 143.82876,5.34876 c -6.7439,-3.14081 -10.13755,-8.32346 -10.60819,-16.20039 -0.415,-6.94563 1.02883,-11.23025 5.18496,-15.38635 3.73104,-3.73107 8.01088,-5.38034 13.77439,-5.30812 7.19337,0.0901 12.88244,3.38615 16.10427,9.33016 5.22777,9.64482 1.54503,22.16855 -7.96229,27.07708 -4.08349,2.1083 -12.48021,2.35654 -16.49314,0.48762 z m 13.40932,-5.34876 c 8.93099,-4.55624 8.95626,-20.23343 0.0403,-24.97612 -5.70055,-3.0323 -13.36598,-0.58695 -16.14311,5.14982 -1.22612,2.53283 -1.43799,3.94863 -1.2405,8.29012 0.27651,6.07767 2.21564,9.83566 6.0501,11.72493 3.08906,1.52196 8.10422,1.43814 11.29319,-0.18875 z m 78.99232,5.62867 c -3.22372,-1.17985 -7.31251,-4.9891 -9.30379,-8.66769 -1.21584,-2.246 -1.45499,-3.7924 -1.45499,-9.40741 0,-5.61113 0.23969,-7.16295 1.45304,-9.40741 4.46019,-8.25058 14.09922,-11.8038 23.41235,-8.63049 6.74195,2.2972 11.49222,9.74209 10.95627,17.17132 l -0.20791,2.88245 -14.70082,0.18134 -14.70082,0.18133 0.40419,2.49074 c 0.82422,5.07936 5.39568,8.90585 10.63957,8.90585 4.24227,0 7.36976,-1.34002 9.2323,-3.95572 1.32241,-1.8571 1.86152,-2.0919 4.80362,-2.0919 1.82269,0 3.31403,0.16621 3.31403,0.36935 0,1.04179 -2.16102,4.24716 -4.14242,6.14422 -4.82277,4.61761 -13.14121,6.23617 -19.70462,3.83402 z m 18.45659,-21.60288 c -0.0289,-2.29869 -2.54947,-6.70807 -4.717,-8.2515 -2.80476,-1.99712 -8.15938,-2.5236 -11.49444,-1.13014 -2.98081,1.24548 -5.88407,4.93698 -6.40437,8.14325 l -0.39181,2.41432 h 11.51123 c 10.52064,0 11.5099,-0.10118 11.49639,-1.17593 z m 91.74447,21.60288 c -3.22372,-1.17985 -7.31252,-4.9891 -9.3038,-8.66769 -1.21584,-2.246 -1.45499,-3.7924 -1.45499,-9.40741 0,-5.61113 0.23969,-7.16295 1.45305,-9.40741 4.46018,-8.25058 14.09921,-11.8038 23.41235,-8.63049 6.7419,2.2972 11.4922,9.74209 10.9563,17.17132 l -0.2079,2.88245 -14.70086,0.18134 -14.70082,0.18133 0.40418,2.49074 c 0.82422,5.07936 5.39569,8.90585 10.63958,8.90585 4.24227,0 7.36972,-1.34002 9.23232,-3.95572 1.3224,-1.8571 1.8615,-2.0919 4.8036,-2.0919 1.8227,0 3.314,0.16621 3.314,0.36935 0,1.04179 -2.161,4.24716 -4.1424,6.14422 -4.8228,4.61761 -13.1412,6.23617 -19.70461,3.83402 z m 18.45661,-21.60288 c -0.029,-2.29869 -2.5495,-6.70807 -4.717,-8.2515 -2.80478,-1.99712 -8.15941,-2.5236 -11.49447,-1.13014 -2.9808,1.24548 -5.88406,4.93698 -6.40436,8.14325 l -0.39182,2.41432 h 11.51124 c 10.52061,0 11.50991,-0.10118 11.49641,-1.17593 z m -787.51961,3.52778 v -18.47884 h 3.35979 3.35979 v 2.43004 2.43005 l 2.64774,-2.39207 c 2.97506,-2.6878 5.77583,-3.44371 11.11809,-3.00068 5.04093,0.41803 8.70216,2.947 10.80501,7.46348 1.54193,3.31175 1.6227,4.14258 1.62894,16.75569 l 0.007,13.27117 h -2.97243 -2.97243 l -0.21937,-12.98941 -0.21936,-12.9894 -1.86606,-2.44462 c -4.36497,-5.71829 -14.29747,-4.56797 -17.03019,1.97234 -0.67113,1.60626 -0.9265,5.55717 -0.9265,14.33427 v 12.11682 h -3.35979 -3.35979 z m 88.18626,-6.55159 0.17617,-25.03042 3.1918,-0.20481 3.1918,-0.2048 v 25.23523 25.23523 h -3.36797 -3.36796 z m 355.30579,6.55159 v -18.47884 h 3.35979 3.35979 v 2.48367 2.48367 l 2.18386,-2.10648 c 2.81118,-2.71155 5.07609,-3.53281 9.74297,-3.53281 5.53787,0 11.18048,3.13411 12.43876,6.90892 0.14629,0.43888 1.29051,-0.37457 2.55883,-1.8191 7.42175,-8.45288 21.48462,-6.07779 25.12623,4.2436 0.79069,2.24109 1.034,5.91534 1.034,15.6135 v 12.68271 h -2.95137 -2.9513 l -0.24305,-12.59921 c -0.22551,-11.69144 -0.35264,-12.77588 -1.76523,-15.05125 -1.57769,-2.54131 -5.40866,-4.60351 -8.55201,-4.60351 -3.14335,0 -6.97431,2.0622 -8.55199,4.60351 -1.41257,2.27537 -1.53976,3.35981 -1.76525,15.05125 l -0.24301,12.59921 h -2.89997 -2.89999 l -0.21936,-12.98941 -0.21937,-12.9894 -1.86606,-2.44462 c -4.36496,-5.71829 -14.29747,-4.56797 -17.03018,1.97234 -0.67114,1.60626 -0.92651,5.55717 -0.92651,14.33427 v 12.11682 h -3.35979 -3.35979 z m 157.39547,-0.16799 0.1786,-18.64682 3.1918,-0.20481 3.1918,-0.20481 v 2.85647 2.85646 l 2.18386,-2.10648 c 2.38908,-2.30439 5.04567,-3.53281 7.64009,-3.53281 1.57662,0 1.66115,0.18386 1.46816,3.1918 l -0.20481,3.19179 -3.02381,0.36681 c -7.26352,0.88112 -8.06349,2.738 -8.06349,18.71755 v 12.16168 h -3.3704 -3.37041 z m 30.01211,17.11165 c -3.39587,-2.28326 -3.88223,-4.57021 -3.92524,-18.45556 l -0.0379,-12.26323 h -2.39244 c -2.35366,0 -2.38901,-0.0408 -2.18386,-2.51984 0.19044,-2.3005 0.39867,-2.53818 2.39244,-2.73041 l 2.18386,-0.21056 v -4.32515 -4.32515 h 3.35979 3.35979 v 4.36772 4.36773 h 4.7037 4.70371 v 2.68783 2.68783 h -4.70371 -4.7037 v 12.13941 c 0,7.08299 0.28975,12.6808 0.69561,13.43915 0.56834,1.06201 1.42872,1.29975 4.7037,1.29975 h 4.0081 v 2.68783 2.68783 h -4.9403 c -4.03128,0 -5.36048,-0.28249 -7.22355,-1.53518 z m 59.87284,-16.94366 v -18.47884 h 3.35979 3.35979 v 2.48367 2.48367 l 2.18386,-2.10648 c 2.8112,-2.71155 5.0761,-3.53281 9.74298,-3.53281 5.53787,0 11.18044,3.13411 12.43874,6.90892 0.14629,0.43888 1.2905,-0.37457 2.55882,-1.8191 7.42177,-8.45288 21.48464,-6.07779 25.12624,4.2436 0.7907,2.24109 1.03401,5.91534 1.03401,15.6135 v 12.68271 h -2.95137 -2.95131 l -0.24304,-12.59921 c -0.22551,-11.69144 -0.35265,-12.77588 -1.76524,-15.05125 -1.57769,-2.54131 -5.40865,-4.60351 -8.552,-4.60351 -3.14335,0 -6.97432,2.0622 -8.55201,4.60351 -1.41259,2.27537 -1.53972,3.35981 -1.76523,15.05125 l -0.24305,12.59921 h -2.89996 -2.89997 l -0.21933,-12.98941 -0.21939,-12.9894 -1.86603,-2.44462 c -4.36497,-5.71829 -14.29751,-4.56797 -17.03023,1.97234 -0.67115,1.60626 -0.92649,5.55717 -0.92649,14.33427 v 12.11682 h -3.35979 -3.35979 z m 110.87304,0 v -18.47884 h 3.3598 3.3597 v 2.43004 2.43005 l 2.6478,-2.39207 c 2.9751,-2.6878 5.7758,-3.44371 11.1181,-3.00068 5.0409,0.41803 8.7021,2.947 10.805,7.46348 1.5419,3.31175 1.6227,4.14258 1.6289,16.75569 l 0.01,13.27117 h -2.9724 -2.9725 l -0.2193,-12.98941 -0.2194,-12.9894 -1.866,-2.44462 c -4.365,-5.71829 -14.2975,-4.56797 -17.0302,1.97234 -0.6712,1.60626 -0.9265,5.55717 -0.9265,14.33427 v 12.11682 h -3.3598 -3.3598 v -18.47884 z m 47.6404,16.94366 c -3.3959,-2.28326 -3.8823,-4.57021 -3.9253,-18.45556 l -0.038,-12.26323 h -2.3924 c -2.3537,0 -2.389,-0.0408 -2.1839,-2.51984 0.1904,-2.3005 0.3987,-2.53818 2.3925,-2.73041 l 2.1838,-0.21056 v -4.32515 -4.32515 h 3.3598 3.3598 v 4.36772 4.36773 h 4.7037 4.7037 v 2.68783 2.68783 h -4.7037 -4.7037 v 12.13941 c 0,7.08299 0.2897,12.6808 0.6956,13.43915 0.5683,1.06201 1.4287,1.29975 4.7037,1.29975 h 4.0081 v 2.68783 2.68783 h -4.9403 c -4.0313,0 -5.3605,-0.28249 -7.2235,-1.53518 z m -911.77797,-38.705 c 0,-0.69665 0.75595,-1.76196 1.67989,-2.36734 2.20109,-1.44221 2.30464,-4.24733 0.16799,-4.55078 -1.25684,-0.1785 -1.54676,-0.6965 -1.71853,-3.07054 l -0.20663,-2.85582 h 3.32654 c 3.90318,0 4.14227,0.35523 4.14227,6.15427 0,3.55658 -0.23008,4.25855 -1.96418,5.99265 -2.30296,2.30297 -5.42735,2.70453 -5.42735,0.69756 z m 581.71555,-23.89302 c -4.17756,-1.49018 -7.74948,-4.23615 -9.19432,-7.0683 -2.0732,-4.06378 -1.84789,-4.72972 1.6002,-4.72972 2.63703,0 3.1,0.24167 4.27351,2.23058 1.80293,3.05572 5.59311,4.77104 10.57594,4.78638 7.77818,0.0239 11.0873,-3.86792 11.0873,-13.03964 v -5.50371 l -1.66437,1.978 c -2.65094,3.15049 -7.89483,5.07043 -12.77815,4.67845 -10.54234,-0.84624 -17.08445,-9.22366 -16.32178,-20.90064 0.68862,-10.54326 7.60051,-17.23471 17.80244,-17.23471 4.30141,0 7.16381,1.0961 10.49087,4.01729 l 2.47099,2.16954 v -2.75744 -2.75744 h 3.35979 3.35979 l -0.0148,20.99868 c -0.0141,19.67041 -0.10133,21.18995 -1.3835,24.02249 -3.00553,6.6396 -8.6284,10.08123 -16.4086,10.04331 -2.58703,-0.0126 -5.85194,-0.43252 -7.25533,-0.93312 z m 13.09935,-24.2371 c 1.39088,-0.92044 3.13965,-2.87067 3.88606,-4.33385 1.87369,-3.67272 1.84278,-10.02203 -0.0681,-13.96931 -4.27386,-8.82852 -16.96337,-8.90609 -21.44002,-0.13107 -1.57541,3.08807 -1.78721,9.65818 -0.41655,12.92002 1.18775,2.8264 4.90274,6.40461 7.46968,7.19456 3.05996,0.94167 7.72839,0.19944 10.56889,-1.68035 z m -436.23724,7.10754 c -8.42852,-2.56384 -13.27213,-10.41023 -12.61709,-20.43904 0.68864,-10.54326 7.6005,-17.23471 17.8024,-17.23471 4.30147,0 7.16386,1.0961 10.49092,4.01729 l 2.47097,2.16954 v -2.75744 -2.75744 h 3.35979 3.35979 v 18.47884 18.47884 h -3.35979 -3.35979 v -3.11443 -3.11443 l -1.45891,1.8547 c -3.09485,3.93447 -11.21303,6.08378 -16.68829,4.41828 z m 12.90395,-7.10754 c 1.39088,-0.92044 3.13961,-2.87067 3.88606,-4.33385 1.87368,-3.67272 1.84271,-10.02203 -0.0681,-13.96931 -4.27381,-8.82852 -16.9633,-8.90609 -21.43999,-0.13107 -1.57541,3.08807 -1.78723,9.65818 -0.41652,12.92002 1.18771,2.8264 4.90275,6.40461 7.46967,7.19456 3.05992,0.94167 7.72835,0.19944 10.56891,-1.68035 z m 55.31152,6.65968 c -3.2237,-1.17985 -7.3125,-4.9891 -9.30378,-8.66769 -1.2158,-2.246 -1.45497,-3.7924 -1.45497,-9.40741 0,-5.61113 0.23969,-7.16295 1.45303,-9.40741 4.46019,-8.25058 14.09919,-11.8038 23.41233,-8.63049 6.74196,2.2972 11.49223,9.74209 10.95632,17.17132 l -0.20792,2.88245 -14.70084,0.18134 -14.70083,0.18133 0.40419,2.49074 c 0.82427,5.07936 5.39567,8.90585 10.63959,8.90585 4.24228,0 7.36979,-1.34002 9.23232,-3.95572 1.32238,-1.8571 1.86153,-2.0919 4.80359,-2.0919 1.82272,0 3.31404,0.16621 3.31404,0.36935 0,1.04178 -2.16105,4.24716 -4.14241,6.14422 -4.82279,4.61761 -13.14123,6.23617 -19.70466,3.83402 z m 18.45665,-21.60288 c -0.0288,-2.29869 -2.54952,-6.70807 -4.71706,-8.2515 -2.8047,-1.99712 -8.15938,-2.5236 -11.49441,-1.13014 -2.98084,1.24548 -5.88407,4.93698 -6.40438,8.14325 l -0.39179,2.41432 h 11.5112 c 10.5207,0 11.50993,-0.10119 11.49644,-1.17593 z m 44.36396,21.32297 c -6.74391,-3.14081 -10.13757,-8.32346 -10.6082,-16.20039 -0.41499,-6.94563 1.02886,-11.23025 5.18497,-15.38636 3.73106,-3.73106 8.01087,-5.38033 13.77442,-5.30811 7.19334,0.0901 12.88241,3.38615 16.10423,9.33016 5.22776,9.64481 1.54505,22.16855 -7.96225,27.07708 -4.08352,2.1083 -12.48024,2.35654 -16.49317,0.48762 z m 13.40933,-5.34876 c 8.93098,-4.55624 8.95627,-20.23343 0.0403,-24.97612 -5.70055,-3.0323 -13.36599,-0.58695 -16.14311,5.14982 -1.22612,2.53283 -1.43796,3.94863 -1.24046,8.29012 0.27648,6.07767 2.21562,9.83566 6.0501,11.72493 3.089,1.52196 8.1042,1.43814 11.29317,-0.18875 z m 124.01344,5.62867 c -3.2237,-1.17985 -7.3125,-4.9891 -9.30378,-8.66769 -1.2158,-2.246 -1.45497,-3.7924 -1.45497,-9.40741 0,-5.61113 0.23969,-7.16295 1.45302,-9.40741 4.4602,-8.25058 14.09921,-11.8038 23.41235,-8.63049 6.74195,2.2972 11.49223,9.74209 10.95632,17.17132 l -0.20793,2.88245 -14.70083,0.18134 -14.70084,0.18133 0.40419,2.49074 c 0.82427,5.07936 5.39568,8.90585 10.6396,8.90585 4.24228,0 7.36978,-1.34002 9.23232,-3.95572 1.32237,-1.8571 1.86152,-2.0919 4.80359,-2.0919 1.82272,0 3.31403,0.16621 3.31403,0.36935 0,1.04178 -2.16104,4.24716 -4.1424,6.14422 -4.82279,4.61761 -13.14123,6.23617 -19.70467,3.83402 z m 18.45666,-21.60288 c -0.0288,-2.29869 -2.54952,-6.70807 -4.71706,-8.2515 -2.80471,-1.99712 -8.15938,-2.5236 -11.49441,-1.13014 -2.98085,1.24548 -5.88408,4.93698 -6.40439,8.14325 l -0.39179,2.41432 h 11.5112 c 10.5207,0 11.50993,-0.10119 11.49645,-1.17593 z m 33.91807,21.02922 c -2.15265,-2.15265 -2.14105,-5.05472 0.0305,-7.63551 1.32159,-1.57061 1.6799,-2.74335 1.6799,-5.49821 0,-2.75485 -0.35831,-3.92759 -1.6799,-5.4982 -0.96631,-1.1484 -1.67989,-2.84381 -1.67989,-3.9913 0,-2.60491 2.65975,-5.29356 5.23665,-5.29356 1.63191,0 2.66692,-0.91987 6.55406,-5.82488 3.86894,-4.88204 4.62695,-6.25643 4.68301,-8.49105 0.0508,-2.02554 0.51057,-3.04781 1.91342,-4.25449 2.13173,-1.83363 3.75599,-1.98658 6.42723,-0.60523 2.14532,1.10939 2.73589,2.23859 2.73589,5.23117 0,1.52299 1.20045,3.64668 4.52693,8.00854 3.70504,4.85826 4.85316,5.93594 6.32386,5.93594 1.19453,0 2.4001,0.71681 3.5961,2.13818 2.17696,2.58717 1.91858,5.51665 -0.67301,7.63044 -1.40396,1.14512 -1.67864,1.94757 -1.67864,4.90393 0,2.92844 0.28828,3.78858 1.68061,5.01444 2.59514,2.28485 2.84422,5.15829 0.67104,7.74096 -1.38295,1.64354 -2.33648,2.13818 -4.12182,2.13818 -5.00548,0 -7.53322,-6.03313 -3.94147,-9.4074 1.40929,-1.32396 1.67647,-2.1817 1.65866,-5.3248 -0.0169,-2.98784 -0.35063,-4.12087 -1.64767,-5.59452 l -1.62642,-1.84788 h -10.37652 -10.37651 l -2.08693,1.94949 c -1.79876,1.6803 -2.08694,2.41545 -2.08694,5.32398 0,2.85348 0.31124,3.68572 2.01587,5.39035 2.55887,2.55886 2.69742,5.53054 0.36652,7.86143 -2.244,2.244 -5.88057,2.244 -8.12457,0 z m 5.6715,-2.6332 c 1.10428,-1.33058 0.18378,-3.10898 -1.60921,-3.10898 -0.84486,0 -1.72487,0.4919 -1.95557,1.09311 -0.47063,1.22644 0.66878,2.93864 1.95557,2.93864 0.46386,0 1.188,-0.41525 1.60921,-0.92277 z m 32.19026,0.11642 c 1.06246,-1.06246 1.01773,-1.5741 -0.24825,-2.84009 -0.79606,-0.79606 -1.37263,-0.8844 -2.35186,-0.36033 -1.26774,0.67847 -1.74205,2.66602 -0.84927,3.55879 0.71317,0.71317 2.57084,0.52016 3.44938,-0.35837 z m 0.43001,-19.15353 c 0.5535,-1.4424 -0.90114,-2.99243 -2.58181,-2.75113 -1.77782,0.25527 -2.24604,2.54031 -0.74537,3.63763 1.3346,0.97589 2.75806,0.59662 3.32718,-0.8865 z m -32.21361,-0.4616 c 0,-1.99371 -2.08534,-2.97958 -3.43906,-1.62585 -1.60804,1.60804 -0.70685,3.37341 1.58736,3.10952 1.29307,-0.14873 1.8517,-0.59633 1.8517,-1.48367 z m 25.18549,-3.26503 c -0.007,-0.46197 -1.81857,-3.15137 -4.02546,-5.97644 -3.65649,-4.68072 -4.25246,-5.15938 -6.71649,-5.39436 -2.67347,-0.25496 -2.75313,-0.19583 -7.06185,5.24115 -2.39683,3.02446 -4.35788,5.8299 -4.35788,6.23431 0,0.5027 3.50714,0.73528 11.0873,0.73528 8.42877,0 11.08421,-0.2014 11.07438,-0.83994 z m -9.0585,-16.55772 c 0,-2.32231 -2.14314,-3.48394 -3.37311,-1.8283 -1.27736,1.71944 -0.11949,3.93217 1.90667,3.64372 1.04019,-0.14808 1.46644,-0.67576 1.46644,-1.81542 z m 124.31962,42.52832 c -3.22371,-1.17985 -7.31251,-4.9891 -9.30379,-8.66769 -1.21584,-2.246 -1.45499,-3.7924 -1.45499,-9.40741 0,-5.61113 0.23969,-7.16295 1.45304,-9.40741 4.46019,-8.25058 14.09922,-11.8038 23.41235,-8.63049 6.74195,2.2972 11.49222,9.74209 10.95627,17.17132 l -0.2079,2.88245 -14.70082,0.18134 -14.70082,0.18133 0.40418,2.49074 c 0.82422,5.07936 5.39568,8.90585 10.63957,8.90585 4.24227,0 7.36977,-1.34002 9.2323,-3.95572 1.32241,-1.8571 1.86152,-2.0919 4.80362,-2.0919 1.82269,0 3.31403,0.16621 3.31403,0.36935 0,1.04178 -2.16101,4.24716 -4.14242,6.14422 -4.82277,4.61761 -13.1412,6.23617 -19.70462,3.83402 z m 18.4566,-21.60288 c -0.0289,-2.29869 -2.54948,-6.70807 -4.71701,-8.2515 -2.80475,-1.99712 -8.15938,-2.5236 -11.49444,-1.13014 -2.98081,1.24548 -5.88407,4.93698 -6.40436,8.14325 l -0.39182,2.41432 h 11.51124 c 10.52064,0 11.50989,-0.10119 11.49639,-1.17593 z m 119.29472,21.60288 c -3.22371,-1.17985 -7.31251,-4.9891 -9.30379,-8.66769 -1.21584,-2.246 -1.45499,-3.7924 -1.45499,-9.40741 0,-5.61113 0.23969,-7.16295 1.45304,-9.40741 4.46019,-8.25058 14.09922,-11.8038 23.41235,-8.63049 6.74195,2.2972 11.49222,9.74209 10.95627,17.17132 l -0.2079,2.88245 -14.70082,0.18134 -14.70082,0.18133 0.40418,2.49074 c 0.82422,5.07936 5.39568,8.90585 10.63957,8.90585 4.24227,0 7.36977,-1.34002 9.2323,-3.95572 1.32241,-1.8571 1.86152,-2.0919 4.80362,-2.0919 1.82269,0 3.31403,0.16621 3.31403,0.36935 0,1.04178 -2.16102,4.24716 -4.14242,6.14422 -4.82277,4.61761 -13.1412,6.23617 -19.70462,3.83402 z m 18.4566,-21.60288 c -0.0289,-2.29869 -2.54948,-6.70807 -4.71701,-8.2515 -2.80475,-1.99712 -8.15938,-2.5236 -11.49444,-1.13014 -2.98081,1.24548 -5.88407,4.93698 -6.40436,8.14325 l -0.39182,2.41432 h 11.51124 c 10.52064,0 11.50989,-0.10119 11.49639,-1.17593 z m -689.41378,-1.5119 v -23.51852 h 9.95967 c 11.81929,0 15.00093,0.81008 18.53186,4.71838 3.14603,3.48228 4.16172,7.29274 3.19669,11.99264 -1.67222,8.14405 -7.72055,11.49522 -20.7689,11.50731 l -4.19974,0.004 v 9.40741 9.40741 h -3.35979 -3.35979 z m 20.13546,-1.54983 c 4.60735,-1.58688 6.80335,-7.89631 4.37962,-12.58328 -1.61886,-3.13053 -4.11382,-4.00975 -11.37853,-4.00975 h -6.41697 v 8.73545 8.73545 l 5.54365,-0.0379 c 3.04901,-0.0208 6.59152,-0.39884 7.87223,-0.83995 z m 18.9979,0.0379 0.17617,-25.03043 3.1918,-0.2048 3.19179,-0.20481 v 25.23523 25.23523 h -3.36796 -3.36797 z m 66.96733,23.49524 c -3.39586,-2.28326 -3.88225,-4.57021 -3.9252,-18.45556 l -0.0379,-12.2632 h -2.39242 c -2.35367,0 -2.38903,-0.0408 -2.18386,-2.51984 0.1904,-2.30051 0.39865,-2.53818 2.39242,-2.73041 l 2.18386,-0.21056 v -4.32515 -4.32515 h 3.35979 3.35978 v 4.36772 4.36773 h 4.70371 4.7037 v 2.68783 2.68783 h -4.7037 -4.70371 v 12.13941 c 0,7.08299 0.28974,12.6808 0.6956,13.43915 0.56837,1.06201 1.42873,1.29974 4.70371,1.29974 h 4.0081 v 2.68784 2.68783 h -4.94031 c -4.03124,0 -5.36045,-0.28249 -7.22355,-1.53518 z m 61.21677,-14.59178 V 502.8562 h -2.39242 c -2.35367,0 -2.38903,-0.0408 -2.18386,-2.51984 0.18834,-2.27566 0.41143,-2.53959 2.3021,-2.72367 2.01026,-0.19572 2.1087,-0.35054 2.47415,-3.89143 0.69485,-6.73244 4.05099,-10.06956 10.55135,-10.49153 3.01759,-0.19588 3.02422,-0.19141 3.22355,2.1757 0.19347,2.29767 0.10347,2.39773 -2.87325,3.19387 -3.36812,0.90084 -4.38205,2.41399 -4.38205,6.5396 v 2.27457 l 3.86376,0.20152 3.86376,0.20152 0.20855,2.51985 0.20855,2.51984 h -4.07231 -4.07231 v 16.12698 16.12699 h -3.35979 -3.35978 z m 63.99333,-2.51984 0.17862,-18.64683 3.1918,-0.2048 3.1918,-0.20481 v 2.85647 2.85646 l 2.18386,-2.10648 c 2.38906,-2.3044 5.04565,-3.53281 7.64009,-3.53281 1.57659,0 1.66117,0.18386 1.46816,3.19179 l -0.20481,3.1918 -3.02381,0.36681 c -7.26355,0.88112 -8.06349,2.73799 -8.06349,18.71755 v 12.16168 h -3.37042 -3.37042 z m 24.70508,0.16799 v -18.47884 h 3.35979 3.35979 v 2.48367 2.48367 l 2.18386,-2.10648 c 2.81117,-2.71155 5.07609,-3.53281 9.74297,-3.53281 5.53786,0 11.18048,3.13411 12.43875,6.90892 0.14629,0.43888 1.29052,-0.37457 2.55883,-1.8191 7.42174,-8.45289 21.4846,-6.07779 25.1262,4.2436 0.7907,2.24109 1.03404,5.91534 1.03404,15.6135 v 12.68271 h -2.95135 -2.95136 l -0.24301,-12.59921 c -0.2255,-11.69144 -0.35268,-12.77588 -1.76525,-15.05125 -1.57767,-2.54131 -5.40863,-4.60351 -8.55199,-4.60351 -3.14337,0 -6.97433,2.0622 -8.55199,4.60351 -1.41257,2.27537 -1.53976,3.35981 -1.76526,15.05125 l -0.243,12.59921 h -2.89998 -2.89998 l -0.21937,-12.98941 -0.21936,-12.98941 -1.86606,-2.44461 c -4.36497,-5.71829 -14.29748,-4.56797 -17.03019,1.97234 -0.67113,1.60626 -0.9265,5.55717 -0.9265,14.33426 v 12.11683 h -3.35979 -3.35979 z m 180.08465,0 v -18.47884 h 3.35979 3.35979 v 2.43004 2.43005 l 2.64774,-2.39207 c 2.97507,-2.6878 5.77585,-3.44371 11.11812,-3.00068 5.04089,0.41803 8.70212,2.947 10.80501,7.46348 1.54187,3.31175 1.62264,4.14258 1.62889,16.75569 l 0.007,13.27117 h -2.9724 -2.97247 l -0.21933,-12.98941 -0.2194,-12.98941 -1.86602,-2.44461 c -4.36497,-5.71829 -14.29751,-4.56797 -17.03022,1.97234 -0.67127,1.60626 -0.92664,5.55717 -0.92664,14.33426 v 12.11683 h -3.35979 -3.35979 z m 132.56871,0.83861 c -3.77431,-9.70066 -7.06388,-18.18387 -7.31002,-18.85159 -0.40103,-1.08767 -0.0826,-1.19259 3.05915,-1.00794 l 3.50682,0.2061 5.58988,15.45503 c 4.25322,11.7595 5.71869,15.13368 6.12859,14.11111 0.29633,-0.73915 2.85387,-7.69391 5.68341,-15.45502 l 5.14465,-14.11112 3.53584,-0.2061 c 3.17177,-0.18489 3.48907,-0.0811 3.08173,1.00794 -0.24983,0.66772 -3.53933,9.14931 -7.31009,18.84797 l -6.85592,17.63393 -3.69577,0.003 -3.69576,0.003 -6.86251,-17.63755 z m 34.07679,-0.83861 v -18.47884 h 3.35979 3.35979 v 18.47884 18.47884 h -3.35979 -3.35979 z m 16.79894,0 v -18.47884 h 3.35979 3.35979 v 2.43004 2.43005 l 2.64771,-2.39207 c 2.9751,-2.6878 5.77588,-3.44371 11.11815,-3.00068 5.04089,0.41803 8.70212,2.947 10.80501,7.46348 1.54187,3.31175 1.62264,4.14258 1.62889,16.75569 l 0.007,13.27117 h -2.9724 -2.97247 l -0.21933,-12.98941 -0.2194,-12.98941 -1.86602,-2.44461 c -4.36497,-5.71829 -14.29751,-4.56797 -17.03023,1.97234 -0.67115,1.60626 -0.9265,5.55717 -0.9265,14.33426 v 12.11683 h -3.35978 -3.35979 v -18.47884 z m -16.42486,-26.01989 c -0.57533,-0.82138 -1.04604,-2.16015 -1.04604,-2.97504 0,-1.55028 2.85797,-4.26698 4.48888,-4.26698 1.42348,0 4.24657,3.10671 4.24657,4.67317 0,3.59414 -5.64935,5.48146 -7.68941,2.56885 z M 644.75835,441.11326 c -12.17336,-3.15521 -20.53462,-15.85576 -18.35427,-27.87969 1.38864,-7.65786 6.48018,-14.79026 12.5643,-17.60048 l 2.81032,-1.29806 0.0173,-18.2088 0.0173,-18.20879 -2.72578,-1.22916 c -3.92772,-1.77115 -9.6209,-8.20462 -11.41105,-12.89483 -4.46863,-11.70788 0.96175,-24.82101 12.66418,-30.58111 4.09558,-2.0159 4.99303,-2.19817 10.72104,-2.17732 l 6.2513,0.0227 20.64037,-25.48363 c 11.3522,-14.01599 20.85317,-25.84282 21.11322,-26.28185 0.26011,-0.43904 0.0114,-2.2864 -0.55316,-4.10526 -0.66806,-2.15302 -0.92982,-4.96122 -0.75024,-8.04747 0.52232,-8.97495 5.62698,-16.58412 13.83722,-20.626 4.01327,-1.97568 5.01496,-2.18379 10.51184,-2.18379 5.49688,0 6.49857,0.20811 10.51184,2.18382 5.25907,2.58903 9.38805,6.80645 11.89096,12.14558 1.54839,3.30308 1.78539,4.66783 1.77081,10.19706 -0.0101,3.95371 -0.34881,6.9772 -0.889,7.94306 -0.82658,1.47784 0.23465,2.93732 20.27699,27.88623 l 21.1492,26.32679 h 5.62744 c 4.99164,0 6.12832,0.24675 10.06035,2.18382 5.26802,2.59528 9.40136,6.82514 11.86839,12.14558 2.41159,5.20085 2.49639,13.35817 0.19916,19.1543 -1.82846,4.61334 -7.06274,10.21671 -11.34365,12.14348 l -2.83942,1.27799 v 17.91635 17.91635 l 2.40977,1.14915 c 4.09478,1.95266 9.34008,7.48247 11.43329,12.05351 1.64785,3.59839 1.91703,5.02607 1.93135,10.24292 0.0148,5.49873 -0.18627,6.47376 -2.1672,10.49771 -2.58906,5.25905 -6.80646,9.38806 -12.14564,11.89095 -3.24394,1.52071 -4.7166,1.78768 -9.86104,1.78768 -5.14444,0 -6.61711,-0.26697 -9.86105,-1.78768 -5.33917,-2.50289 -9.55658,-6.6319 -12.14563,-11.89095 -2.00022,-4.06312 -2.1838,-4.9737 -2.1838,-10.83369 0,-5.50839 0.24614,-6.92268 1.77074,-10.17414 2.34722,-5.00601 5.82581,-8.74248 10.33008,-11.09602 l 3.68696,-1.92651 v -17.84097 -17.84097 l -2.94922,-1.43283 c -4.24301,-2.06143 -7.63169,-5.27298 -10.00962,-9.48639 l -2.07453,-3.67588 -33.24719,0.44408 c -18.28276,0.24423 -39.68936,0.44407 -47.56699,0.44407 h -14.32296 l -1.31687,2.58126 c -1.78225,3.4935 -6.93201,8.45246 -10.53785,10.1474 l -2.95567,1.38934 v 17.74349 17.74349 l 3.02382,1.46381 c 1.66311,0.80509 4.36323,2.76556 6.00029,4.3566 12.3283,11.98173 8.67585,32.72915 -7.00824,39.80974 -3.98917,1.80091 -11.99004,2.60955 -15.86983,1.60395 z m 152.9492,-15.42986 c 4.69302,-3.44694 5.96214,-8.95604 3.18071,-13.80752 -5.13698,-8.96034 -19.3077,-5.35552 -19.3077,4.91159 0,4.23694 1.85031,7.4078 5.44642,9.33345 3.42564,1.83436 7.83321,1.65381 10.68057,-0.43752 z m -142.47463,0.24378 c 3.18268,-1.64584 5.01129,-4.83708 5.01129,-8.74559 0,-5.78338 -3.9405,-9.74339 -9.69539,-9.74339 -5.74593,0 -9.70067,3.96517 -9.6878,9.71336 0.009,3.88723 1.4846,6.6099 4.61936,8.52154 2.47121,1.50698 7.09664,1.62749 9.75254,0.25408 z m -1.86226,-80.98104 c 2.11628,0 6.39748,-4.69766 6.94603,-7.62172 0.64194,-3.42184 -1.17463,-8.03577 -3.94057,-10.00868 -1.59342,-1.13657 -3.06455,-1.5204 -5.8273,-1.5204 -4.70604,0 -7.50576,1.85445 -9.09931,6.02713 -1.48669,3.89283 -0.87108,7.15342 1.92708,10.20674 2.0541,2.24141 5.76205,3.76793 7.73116,3.18284 0.49219,-0.14625 1.5105,-0.26591 2.26291,-0.26591 z m 143.64081,-0.83995 c 9.1274,-4.68029 5.97101,-18.20566 -4.46153,-19.11798 -6.23389,-0.54516 -10.96938,3.84003 -10.96938,10.15793 0,8.25953 7.87716,12.83343 15.43091,8.96005 z m -26.72766,-20.72745 1.80649,-3.41324 -19.7831,-24.38816 -19.78304,-24.38816 -2.85407,1.01903 c -3.83352,1.36872 -12.19476,1.31852 -15.55643,-0.0934 -1.44269,-0.60592 -2.69623,-1.0221 -2.7856,-0.92486 -0.0894,0.0973 -9.25084,11.31163 -20.35873,24.92085 l -20.19612,24.74404 1.44498,2.97422 1.44499,2.97421 47.40713,-0.005 47.40708,-0.005 1.80642,-3.41324 z m -43.38884,-65.05718 c 8.77409,-3.98445 7.60125,-16.81978 -1.79413,-19.6347 -5.68046,-1.70191 -12.2088,2.52647 -13.10257,8.48649 -0.66167,4.41237 1.68104,8.88516 5.72071,10.92226 3.62643,1.8287 5.54271,1.87589 9.17599,0.22595 z m 317.86343,180.98828 c -55.41814,-8.62008 -92.04736,-55.44455 -87.74723,-112.17058 3.65827,-48.25958 35.22872,-84.4871 82.26513,-94.40055 8.6869,-1.83085 26.1846,-2.51641 35.9498,-1.40851 29.8542,3.38708 54.2956,16.92816 69.9897,38.77576 3.987,5.55037 9.2757,14.77772 9.2918,16.21187 0.01,0.64188 -2.9073,0.83994 -12.3598,0.83994 h -12.3693 l -3.9042,-5.87963 c -15.0028,-22.59368 -42.6815,-34.71892 -72.6264,-31.81544 -20.6731,2.00448 -37.2311,9.48845 -50.624,22.8813 -11.64218,11.64219 -18.91787,25.85006 -22.59785,44.1286 -1.84129,9.14581 -1.66443,30.44444 0.32953,39.68744 5.85175,27.12531 20.41462,46.47264 43.43092,57.69969 12.9831,6.333 26.0041,8.85945 41.9654,8.14247 26.6553,-1.19736 47.6504,-12.74619 60.986,-33.5468 l 2.9079,-4.53572 h 12.4356 c 8.9149,0 12.4357,0.21852 12.4357,0.77179 0,1.46328 -6.0834,11.92719 -9.9778,17.16257 -15.4497,20.76967 -37.883,33.49188 -66.1406,37.50904 -8.5162,1.21068 -25.6893,1.1835 -33.6403,-0.0532 z M 32.347778,335.53873 V 232.72921 l 36.4537,0.004 c 28.5451,0.003 37.838622,0.21642 42.837302,0.98325 17.50305,2.68508 28.44409,7.805 38.66712,18.09451 5.07767,5.1107 6.59463,7.16658 9.22346,12.50029 4.76613,9.67008 6.1511,16.22737 6.10278,28.89418 -0.0459,12.02471 -1.193,17.53735 -5.52321,26.54233 -7.78648,16.19251 -21.22576,25.85943 -42.75851,30.75633 -5.45366,1.24025 -8.8689,1.40281 -34.773812,1.65516 l -28.72619,0.27983 v 42.9546 42.9546 h -10.75132 -10.75132 z m 81.978832,-2.29679 c 15.54921,-4.25605 24.94685,-13.1867 28.69531,-27.26935 1.61132,-6.05363 1.60995,-20.83348 -0.003,-26.87831 -3.81063,-14.2861 -12.53915,-22.77463 -27.79089,-27.02693 -4.95625,-1.38184 -6.9369,-1.48338 -33.323692,-1.70839 l -28.05423,-0.23924 v 42.41957 42.41956 l 28.05423,-0.2607 c 24.264972,-0.22549 28.644182,-0.42218 32.421962,-1.45621 z m 213.15653,94.90084 0.19003,-7.52385 12.43121,-10.70881 c 33.72991,-29.05643 43.11596,-37.50405 56.49244,-50.84422 14.82855,-14.78829 22.67094,-23.92585 29.70819,-34.61447 10.71604,-16.27621 15.33438,-31.07943 14.35565,-46.01427 -1.60489,-24.48931 -13.76417,-37.96037 -37.04804,-41.04486 -21.43616,-2.83972 -40.59177,5.95937 -49.22264,22.61031 -3.34124,6.44604 -6.04715,15.46733 -6.73424,22.45146 l -0.4958,5.03968 -9.91138,0.18595 -9.91137,0.18596 v -2.3212 c 0,-11.14442 4.92497,-27.7784 11.26053,-38.03219 3.69681,-5.98311 13.13838,-15.54409 18.46737,-18.70093 21.15674,-12.53304 50.54803,-13.52993 72.7489,-2.46747 11.39992,5.68047 18.87766,13.26406 24.51709,24.86417 5.02428,10.33477 6.33956,16.5119 6.36699,29.90211 0.0249,12.13945 -0.75619,16.91725 -4.50377,27.55027 -9.54815,27.09095 -29.29759,50.714 -78.2944,93.65087 l -16.96903,14.8703 53.77819,0.17199 53.77818,0.17199 -0.18747,8.89944 -0.18746,8.89943 -70.4096,0.17109 -70.4096,0.17109 z"
       style="fill:#ffffff;stroke-width:0.671958" />
  </g>
</svg>
