<?xml version="1.0" encoding="UTF-8" standalone="no"?>
<!-- Created with Inkscape (http://www.inkscape.org/) -->

<svg
   width="10.871353mm"
   height="10.000001mm"
   viewBox="0 0 10.871353 10.000001"
   version="1.1"
   id="svg1"
   xml:space="preserve"
   inkscape:version="1.3.2 (091e20e, 2023-11-25, custom)"
   sodipodi:docname="dessin.svg"
   xmlns:inkscape="http://www.inkscape.org/namespaces/inkscape"
   xmlns:sodipodi="http://sodipodi.sourceforge.net/DTD/sodipodi-0.dtd"
   xmlns="http://www.w3.org/2000/svg"
   xmlns:svg="http://www.w3.org/2000/svg"><sodipodi:namedview
     id="namedview1"
     pagecolor="#ffffff"
     bordercolor="#666666"
     borderopacity="1.0"
     inkscape:showpageshadow="2"
     inkscape:pageopacity="0.0"
     inkscape:pagecheckerboard="0"
     inkscape:deskcolor="#d1d1d1"
     inkscape:document-units="mm"
     inkscape:zoom="6.0150393"
     inkscape:cx="55.693734"
     inkscape:cy="51.703736"
     inkscape:window-width="1419"
     inkscape:window-height="1040"
     inkscape:window-x="418"
     inkscape:window-y="62"
     inkscape:window-maximized="0"
     inkscape:current-layer="layer1" /><defs
     id="defs1" /><g
     inkscape:label="Calque 1"
     inkscape:groupmode="layer"
     id="layer1"
     transform="translate(-9.9999919,-10)"><path
       style="fill:#b31212;stroke-width:0.0685003;stroke:none;stroke-opacity:1;fill-opacity:1"
       d="m 12.684142,19.974307 c -0.496632,-0.0609 -0.81984,-0.145682 -1.549606,-0.40646 -0.365826,-0.130727 -0.379838,-0.137439 -0.405789,-0.194395 -0.04933,-0.108275 -0.01072,-0.414898 0.08926,-0.70886 0.02902,-0.08533 0.06258,-0.219217 0.07456,-0.297527 0.03862,-0.252285 -0.02964,-0.516072 -0.190825,-0.73743 -0.293306,-0.402804 -0.522598,-0.992584 -0.625738,-1.609514 -0.1824955,-1.091597 -0.03604,-2.120129 0.4357,-3.059735 0.291815,-0.58124 0.609012,-1.019119 1.049018,-1.448129 0.890812,-0.86855 1.986043,-1.390718 3.143137,-1.498537 0.295087,-0.027497 0.979004,-0.01154 1.242603,0.02899 0.61441,0.09447 1.154558,0.280599 1.656491,0.570813 0.22531,0.130272 0.481186,0.311159 1.243355,0.87897 0.36384,0.271059 0.926592,0.678759 1.250559,0.906002 0.734406,0.515138 0.702877,0.491485 0.74575,0.559462 0.04779,0.07577 0.03634,0.194125 -0.03724,0.384925 -0.103974,0.269614 -0.258696,0.494598 -0.627812,0.912916 -0.125578,0.142317 -0.236053,0.279086 -0.245498,0.303929 -0.0094,0.02484 -0.02462,0.13596 -0.03373,0.246924 -0.02963,0.361213 -0.120465,0.695305 -0.281543,1.035576 -0.159938,0.337865 -0.158625,0.343592 0.1538,0.670438 0.326525,0.341597 0.387034,0.437695 0.467913,0.743121 0.142472,0.538017 0.120244,1.131442 -0.06382,1.70366 -0.181828,0.56528 -0.457756,0.852792 -0.943186,0.982779 -0.164658,0.04409 -0.204735,0.04744 -0.584568,0.04881 -0.422381,0.0015 -0.50793,-0.0074 -0.860892,-0.08943 -0.348833,-0.08112 -0.756744,-0.237842 -1.603978,-0.616275 -0.694965,-0.31042 -1.057837,-0.462413 -1.071072,-0.448631 -0.0074,0.0077 -0.04362,0.0874 -0.08051,0.177117 -0.09453,0.229914 -0.155833,0.34645 -0.246404,0.468392 -0.14339,0.193054 -0.406817,0.354797 -0.700805,0.43029 -0.329654,0.08465 -0.978986,0.113337 -1.399148,0.06181 z m 6.362804,-0.394841 c 0.366181,-0.09579 0.594886,-0.267371 0.738293,-0.553891 0.107469,-0.214715 0.135919,-0.366568 0.127142,-0.678608 -0.0083,-0.294569 -0.02531,-0.349419 -0.102449,-0.330125 -0.02659,0.0067 -0.133988,0.06589 -0.238655,0.131638 -0.475994,0.299011 -0.896868,0.416738 -1.553723,0.43461 -0.411806,0.0112 -0.671194,-0.0098 -1.173946,-0.09496 -0.447452,-0.07581 -1.435666,-0.282001 -1.701428,-0.354998 -0.108422,-0.02978 -0.201007,-0.05027 -0.205743,-0.04554 -0.03272,0.03272 0.249799,0.280545 0.538807,0.472648 0.792044,0.526468 1.778941,0.914905 2.673295,1.052194 0.256575,0.03938 0.681404,0.02379 0.898407,-0.03297 z M 13.75346,19.450243 c 0.29606,-0.0396 0.321078,-0.05004 0.345217,-0.144061 0.01057,-0.04118 0.03048,-0.115657 0.04424,-0.165498 0.01376,-0.04984 0.03794,-0.159945 0.05375,-0.244675 0.04476,-0.240009 0.03035,-0.222754 0.173981,-0.20833 0.120317,0.01208 0.124626,0.01111 0.133431,-0.03005 0.005,-0.0234 0.01284,-0.352461 0.0174,-0.731253 0.0082,-0.679338 0.01952,-0.867827 0.07684,-1.277745 0.07699,-0.550657 0.262896,-0.970713 0.567792,-1.282935 0.317685,-0.325319 1.086854,-0.797724 1.822499,-1.119334 0.320686,-0.140198 1.185475,-0.482038 2.220195,-0.877613 0.965029,-0.368933 1.044007,-0.402037 0.984383,-0.412612 -0.0697,-0.01236 -0.615944,0.06578 -0.844756,0.120843 -0.527914,0.127048 -0.869707,0.270074 -2.067601,0.865207 -0.9798,0.48678 -1.166794,0.568805 -1.497469,0.656859 -0.25613,0.0682 -0.562867,0.116541 -0.58692,0.09249 -0.02138,-0.02138 0.01281,-0.182874 0.07243,-0.342135 0.07576,-0.202389 0.199513,-0.36077 0.759575,-0.972157 0.347217,-0.379036 0.494705,-0.580262 0.577717,-0.78821 0.04875,-0.122129 0.05436,-0.156602 0.05453,-0.335481 3.42e-4,-0.331945 -0.0874,-0.547809 -0.313241,-0.770738 -0.15669,-0.154672 -0.356697,-0.26921 -0.629967,-0.360764 -0.272843,-0.09141 -0.460351,-0.115223 -0.822202,-0.104413 -0.435224,0.013 -0.639045,0.06035 -0.988964,0.22973 -0.996924,0.482573 -1.68282,1.830742 -1.816591,3.570617 -0.01381,0.17967 -0.01251,0.192296 0.02365,0.228455 0.02105,0.02105 0.09488,0.05669 0.164061,0.0792 0.06918,0.02251 0.158879,0.05982 0.199325,0.0829 0.10228,0.05838 0.219818,0.191297 0.276973,0.31322 0.04161,0.08875 0.04822,0.126467 0.04822,0.275035 0,0.154453 -0.0055,0.182964 -0.05308,0.276946 -0.05038,0.09943 -0.145068,0.202104 -0.279726,0.303327 l -0.06068,0.04561 0.04269,0.08125 c 0.03765,0.07167 0.04269,0.105848 0.04269,0.289681 0,0.116219 -0.01014,0.241803 -0.02293,0.28387 -0.05486,0.180532 -0.221027,0.341053 -0.409803,0.395886 -0.05108,0.01484 -0.205701,0.04675 -0.343609,0.07092 -0.162211,0.02843 -0.262997,0.05504 -0.285453,0.07536 -0.029,0.02625 -0.03477,0.05703 -0.03509,0.18719 -9.85e-4,0.411007 -0.04277,0.785392 -0.143784,1.288291 -0.019,0.09457 -0.03133,0.175146 -0.02741,0.179063 0.03632,0.03632 0.736548,0.167943 1.068712,0.200889 0.263723,0.02616 1.196414,0.01027 1.458985,-0.02484 z m -1.060256,-0.429227 c -0.329279,-0.03197 -0.934833,-0.138535 -0.966359,-0.17006 -0.01539,-0.01539 0.04062,-0.08701 0.09303,-0.118965 0.111763,-0.06815 0.556832,-0.04111 1.079428,0.06557 0.163196,0.03331 0.301115,0.06497 0.306487,0.07034 0.0173,0.0173 -0.05307,0.08056 -0.129846,0.116728 -0.09971,0.04697 -0.187655,0.05533 -0.382741,0.03639 z m 0.163116,-0.354798 c -0.0299,-0.0038 -0.246033,-0.02698 -0.480287,-0.05156 -0.581528,-0.06102 -0.731749,-0.08235 -0.747339,-0.10613 -0.03906,-0.05959 0.01281,-0.396359 0.09455,-0.613853 0.0515,-0.137027 0.07918,-0.143748 0.326556,-0.07929 0.293772,0.07655 0.649432,0.225346 0.920475,0.385089 0.269951,0.1591 0.620265,0.394469 0.606644,0.407593 -0.05133,0.04946 -0.501719,0.08581 -0.7206,0.05815 z m -0.09054,-0.26982 0.07119,-0.02975 -0.10813,-0.04523 c -0.05947,-0.02488 -0.241294,-0.101513 -0.40405,-0.170299 -0.162757,-0.06878 -0.302308,-0.125063 -0.310115,-0.125063 -0.0238,0 -0.127989,0.210491 -0.127989,0.258586 0,0.0248 0.01019,0.05339 0.02265,0.06354 0.01246,0.01015 0.124603,0.03144 0.249206,0.04732 0.124603,0.01587 0.251018,0.03228 0.280922,0.03646 0.0926,0.01294 0.251744,-0.0044 0.326311,-0.03556 z m 5.319327,-0.244174 c 0.471674,-0.02266 0.45644,-0.01566 0.534362,-0.245781 0.03007,-0.0888 0.07814,-0.201358 0.106831,-0.250128 0.07432,-0.12634 0.255722,-0.300268 0.382819,-0.367043 0.117879,-0.06193 0.331618,-0.133171 0.399565,-0.133171 0.02328,0 0.04683,-0.0073 0.05234,-0.01619 0.01153,-0.01865 -0.02319,-0.12295 -0.09188,-0.276004 -0.03879,-0.08642 -0.05589,-0.106531 -0.09064,-0.106531 -0.04416,0 -0.05415,0.02658 -0.02642,0.07034 0.0198,0.03126 -0.04709,0.237794 -0.07698,0.237697 -0.07074,-2.05e-4 -0.152616,-0.09107 -0.339215,-0.376357 l -0.198295,-0.303172 0.107163,-0.03627 c 0.114672,-0.03882 0.172655,-0.08143 0.209582,-0.154039 0.02518,-0.04951 0.196294,-0.641132 0.271256,-0.937865 0.115191,-0.455976 0.150876,-0.910696 0.09292,-1.184084 -0.04601,-0.217036 -0.191508,-0.487956 -0.262063,-0.487956 -0.01781,0 -0.414989,0.17395 -0.882624,0.386557 -0.467635,0.212606 -0.923648,0.417793 -1.013362,0.455972 -0.357977,0.152337 -0.868713,0.396386 -1.067633,0.510153 -0.423141,0.242004 -0.785326,0.600445 -0.995613,0.985319 -0.108404,0.198406 -0.17443,0.372583 -0.239312,0.631309 -0.08665,0.34553 -0.0927,0.322056 0.08689,0.33716 0.18315,0.0154 0.24922,0.03183 0.820113,0.203836 0.685769,0.206624 0.760112,0.223291 0.994615,0.222979 0.33846,-4.8e-4 0.526832,-0.06773 0.836338,-0.298706 0.208875,-0.155879 0.505012,-0.350704 0.581916,-0.382837 0.149321,-0.06239 0.287144,-0.0071 0.440773,0.17673 0.124108,0.148529 0.152213,0.2064 0.153701,0.316482 0.0016,0.118137 -0.02621,0.15235 -0.123807,0.15235 -0.0906,0 -0.137527,-0.03024 -0.209698,-0.135141 -0.02995,-0.04354 -0.100506,-0.118495 -0.156784,-0.166574 l -0.102324,-0.08742 -0.04743,0.06317 c -0.231125,0.307831 -0.464289,0.450854 -0.890522,0.546247 -0.166607,0.03729 -0.236792,0.04249 -0.57058,0.04228 -0.321756,-2.06e-4 -0.412832,-0.0066 -0.589032,-0.04138 -0.305437,-0.06029 -0.522513,-0.124112 -0.795253,-0.233802 -0.133357,-0.05363 -0.246638,-0.09335 -0.251732,-0.08825 -0.01306,0.01306 0.06382,0.110219 0.182982,0.231277 0.12851,0.130554 0.141268,0.176339 0.08076,0.289819 l -0.04602,0.0863 0.09293,0.03476 c 0.406712,0.152113 0.852203,0.268662 1.180374,0.30881 0.08971,0.01098 0.183506,0.0229 0.208427,0.0265 0.102042,0.01474 0.886902,0.01013 1.250558,-0.0073 z m 1.063926,-0.153432 c 0.16511,-0.04903 0.295488,-0.174628 0.29531,-0.284477 -1.37e-4,-0.09199 -0.104481,-0.199908 -0.208359,-0.215516 -0.162474,-0.02441 -0.317487,0.126551 -0.383213,0.373202 -0.01328,0.04984 -0.02424,0.110097 -0.02436,0.133902 -2.05e-4,0.04235 0.0023,0.04303 0.115164,0.03146 0.06346,-0.0065 0.155916,-0.02386 0.205461,-0.03857 z m -4.098219,-0.280846 c 0.01626,0 0.0257,-0.01925 0.0257,-0.05242 0,-0.04095 -0.02442,-0.07503 -0.111607,-0.155749 -0.127518,-0.118059 -0.153121,-0.110263 -0.125388,0.03818 0.01796,0.09611 0.108852,0.19943 0.158638,0.180325 0.01482,-0.0057 0.03852,-0.01034 0.05265,-0.01034 z m -3.421283,-0.398975 c 0.284889,-0.07979 0.37021,-0.11672 0.438396,-0.189742 0.03949,-0.04229 0.04613,-0.06821 0.05173,-0.201815 0.0095,-0.22679 -0.0029,-0.270338 -0.09339,-0.327817 -0.148154,-0.09412 -0.402917,-0.222139 -0.442738,-0.222482 -0.02236,-2.05e-4 -0.05194,0.01785 -0.06633,0.04043 -0.03445,0.0541 -0.109694,0.297695 -0.145489,0.470988 -0.02916,0.141159 -0.04006,0.503218 -0.01515,0.503131 0.0075,-2.6e-5 0.130314,-0.03274 0.272973,-0.07269 z m -0.473752,-0.689747 c 0.03238,-0.09399 0.09679,-0.308426 0.143135,-0.476515 0.06997,-0.253775 0.08082,-0.313167 0.06398,-0.350125 -0.01433,-0.03144 -0.03215,-0.04282 -0.06073,-0.03874 -0.03208,0.0046 -0.06781,0.06015 -0.172647,0.268567 -0.140348,0.279 -0.200398,0.484654 -0.177366,0.607426 0.01289,0.06871 0.09416,0.177153 0.12504,0.166858 0.01084,-0.0036 0.04621,-0.08347 0.07859,-0.17747 z m -0.365522,-0.52476 c 0.04645,-0.27497 0.296397,-0.507637 0.662091,-0.616332 0.07441,-0.02212 0.146041,-0.05024 0.159179,-0.06249 0.01607,-0.01499 0.03502,-0.152281 0.05789,-0.419496 0.03938,-0.460039 0.07094,-0.685854 0.137199,-0.981638 0.141763,-0.632854 0.395244,-1.254948 0.820829,-2.014484 0.08063,-0.143905 0.143969,-0.264281 0.140746,-0.267504 -0.01282,-0.01282 -0.302108,0.09197 -0.46008,0.16665 -0.5838,0.275995 -1.055194,0.766973 -1.392108,1.449941 -0.181401,0.367724 -0.284998,0.724939 -0.335986,1.158532 -0.0273,0.232162 -0.01119,0.849092 0.0282,1.079786 0.04528,0.265206 0.129117,0.57997 0.15447,0.57997 0.0084,0 0.02079,-0.03282 0.02757,-0.07294 z m 1.601145,0.02053 c 0.127787,-0.09099 0.20544,-0.297733 0.163903,-0.436372 -0.02046,-0.06827 -0.03475,-0.08187 -0.141789,-0.13484 -0.200495,-0.09922 -0.413114,-0.179623 -0.443833,-0.167835 -0.03653,0.01402 -0.06921,0.09678 -0.05539,0.140305 0.0057,0.01803 0.07501,0.07004 0.153971,0.115585 0.206536,0.11913 0.224023,0.168138 0.111034,0.311179 -0.102199,0.129381 -0.118914,0.166269 -0.09073,0.20023 0.03605,0.04344 0.227208,0.0256 0.302837,-0.02825 z m 3.534083,-1.821973 c 0.385889,-0.116721 0.558571,-0.194221 1.856018,-0.832985 0.825172,-0.406251 1.246763,-0.578806 1.651177,-0.675817 0.07909,-0.01897 0.138436,-0.04273 0.138496,-0.05545 2.05e-4,-0.03707 -0.811215,-0.836905 -1.014904,-1.000458 -0.332601,-0.267062 -0.646452,-0.457221 -0.890173,-0.539344 -0.147062,-0.04955 -0.41748,-0.0458 -0.516631,0.0072 -0.09806,0.05239 -0.158605,0.126656 -0.187557,0.230064 -0.02072,0.074 -0.01891,0.106659 0.01518,0.273938 0.05139,0.252187 0.05243,0.546472 0.0026,0.744402 -0.01984,0.07885 -0.07229,0.216763 -0.116567,0.306477 -0.120559,0.244295 -0.240231,0.399423 -0.664125,0.860892 -0.339061,0.369116 -0.528279,0.592521 -0.569942,0.672913 -0.04282,0.08262 -0.04179,0.115986 0.003,0.09879 0.01256,-0.0048 0.144574,-0.04559 0.293368,-0.09059 z m 4.375287,-0.603049 c 0.03738,-0.05491 0.06798,-0.105134 0.06799,-0.111605 1.4e-5,-0.0065 -0.04512,-0.009 -0.100292,-0.0055 -0.14043,0.0087 -0.160173,-0.01174 -0.14873,-0.154282 0.009,-0.111653 0.0085,-0.112947 -0.04163,-0.123965 -0.04875,-0.01071 -0.09584,-0.0018 -0.30293,0.05717 l -0.09515,0.0271 v 0.105864 c 0,0.225582 0.08295,0.499167 0.185158,0.610674 l 0.03617,0.03946 0.165729,-0.172529 c 0.09115,-0.09489 0.196313,-0.217457 0.233694,-0.272368 z m -7.290395,-2.493675 c 0.798221,-0.312143 1.522181,-0.450376 2.220195,-0.423925 0.5511,0.02088 0.920979,0.104428 1.348383,0.304558 0.103644,0.04853 0.191529,0.08824 0.195298,0.08824 0.02537,0 -0.0713,-0.134763 -0.156539,-0.21822 -0.438773,-0.429612 -1.636642,-0.579726 -2.664887,-0.333958 -0.719896,0.172066 -1.373002,0.518309 -1.676648,0.888869 l -0.07099,0.08664 0.298381,-0.155346 c 0.16411,-0.08544 0.392173,-0.192023 0.506808,-0.236851 z"
       id="path1" /></g></svg>
