<?xml version="1.0" encoding="UTF-8" standalone="no"?>
<!-- Created with Inkscape (http://www.inkscape.org/) -->

<svg
   width="5.4356785mm"
   height="5.0000048mm"
   viewBox="0 0 5.4356784 5.0000048"
   version="1.1"
   id="svg1"
   xml:space="preserve"
   inkscape:version="1.3.2 (091e20e, 2023-11-25, custom)"
   sodipodi:docname="iconepompier.svg"
   xmlns:inkscape="http://www.inkscape.org/namespaces/inkscape"
   xmlns:sodipodi="http://sodipodi.sourceforge.net/DTD/sodipodi-0.dtd"
   xmlns="http://www.w3.org/2000/svg"
   xmlns:svg="http://www.w3.org/2000/svg"><sodipodi:namedview
     id="namedview1"
     pagecolor="#ffffff"
     bordercolor="#666666"
     borderopacity="1.0"
     inkscape:showpageshadow="2"
     inkscape:pageopacity="0.0"
     inkscape:pagecheckerboard="0"
     inkscape:deskcolor="#d1d1d1"
     inkscape:document-units="mm"
     inkscape:zoom="6.0150393"
     inkscape:cx="55.693734"
     inkscape:cy="51.703735"
     inkscape:window-width="1419"
     inkscape:window-height="1040"
     inkscape:window-x="418"
     inkscape:window-y="0"
     inkscape:window-maximized="0"
     inkscape:current-layer="layer1" /><defs
     id="defs1" /><g
     inkscape:label="Calque 1"
     inkscape:groupmode="layer"
     id="layer1"
     transform="translate(-9.9999938,-9.9999907)"><path
       style="fill:#b31212;fill-opacity:1;stroke:none;stroke-width:0.0342502;stroke-opacity:1"
       d="m 11.342067,14.987153 c -0.248316,-0.03045 -0.40992,-0.07284 -0.774803,-0.20323 -0.182913,-0.06536 -0.189919,-0.06872 -0.202895,-0.0972 -0.02467,-0.05414 -0.0054,-0.207449 0.04463,-0.35443 0.01451,-0.04266 0.03129,-0.109608 0.03728,-0.148763 0.01931,-0.126143 -0.01482,-0.258036 -0.09541,-0.368715 C 10.204216,13.613413 10.08957,13.318523 10.038,13.010058 9.946752,12.464259 10.01998,11.949993 10.25585,11.48019 c 0.145907,-0.29062 0.304506,-0.509559 0.524509,-0.724064 0.445406,-0.434275 0.993021,-0.695359 1.571568,-0.749269 0.147544,-0.013748 0.489502,-0.0058 0.621302,0.0145 0.307205,0.04724 0.577279,0.1403 0.828245,0.285407 0.112655,0.06514 0.240593,0.155579 0.621678,0.439485 0.18192,0.135529 0.463296,0.339379 0.625279,0.453001 0.367203,0.257569 0.351439,0.245742 0.372875,0.279731 0.0239,0.03788 0.01817,0.09706 -0.01862,0.192462 -0.05199,0.134807 -0.129348,0.247299 -0.313906,0.456458 -0.06279,0.07116 -0.118026,0.139543 -0.122749,0.151965 -0.0047,0.01242 -0.01231,0.06798 -0.01687,0.123462 -0.01482,0.180606 -0.06023,0.347652 -0.140771,0.517788 -0.07997,0.168932 -0.07931,0.171796 0.0769,0.335219 0.163262,0.170798 0.193517,0.218847 0.233956,0.37156 0.07124,0.269009 0.06012,0.565721 -0.03191,0.85183 -0.09091,0.28264 -0.228878,0.426396 -0.471593,0.491389 -0.08233,0.02205 -0.102367,0.02372 -0.292284,0.0244 -0.21119,7.5e-4 -0.253965,-0.0037 -0.430446,-0.04472 -0.174416,-0.04056 -0.378372,-0.118921 -0.801989,-0.308137 -0.347482,-0.15521 -0.528918,-0.231206 -0.535536,-0.224315 -0.0037,0.0038 -0.02181,0.0437 -0.04026,0.08856 -0.04726,0.114957 -0.07792,0.173225 -0.123202,0.234196 -0.0717,0.09653 -0.203408,0.177398 -0.350402,0.215145 -0.164827,0.04232 -0.489493,0.05667 -0.699574,0.03091 z m 3.181402,-0.19742 c 0.18309,-0.0479 0.297443,-0.133686 0.369146,-0.276945 0.05374,-0.107358 0.06796,-0.183284 0.06357,-0.339304 -0.0042,-0.147285 -0.01266,-0.17471 -0.05122,-0.165063 -0.01329,0.0033 -0.06699,0.03294 -0.119328,0.06582 -0.237997,0.149506 -0.448434,0.208369 -0.776861,0.217305 -0.205903,0.0056 -0.335597,-0.0049 -0.586973,-0.04748 -0.223726,-0.03791 -0.717833,-0.141 -0.850714,-0.177499 -0.05421,-0.01489 -0.100504,-0.02514 -0.102872,-0.02277 -0.01636,0.01636 0.1249,0.140273 0.269404,0.236324 0.396022,0.263234 0.88947,0.457452 1.336647,0.526097 0.128288,0.01969 0.340702,0.01189 0.449204,-0.01648 z m -2.646743,-0.06461 c 0.14803,-0.0198 0.160539,-0.02502 0.172608,-0.07203 0.0053,-0.02059 0.01524,-0.05783 0.02212,-0.08275 0.0069,-0.02492 0.01897,-0.07997 0.02688,-0.122337 0.02238,-0.120005 0.01518,-0.111377 0.08699,-0.104165 0.06016,0.006 0.06231,0.0056 0.06671,-0.01502 0.0025,-0.0117 0.0064,-0.176231 0.0087,-0.365627 0.0041,-0.339669 0.0098,-0.433913 0.03842,-0.638872 0.03849,-0.275329 0.131448,-0.485357 0.283896,-0.641468 0.158843,-0.162659 0.543427,-0.398862 0.91125,-0.559667 0.160343,-0.0701 0.592737,-0.241019 1.110097,-0.438806 0.482515,-0.184467 0.522004,-0.201019 0.492192,-0.206306 -0.03485,-0.0062 -0.307972,0.03289 -0.422378,0.06042 -0.263957,0.06352 -0.434854,0.135037 -1.033801,0.432604 -0.4899,0.24339 -0.583397,0.284402 -0.748734,0.328429 -0.128065,0.0341 -0.281434,0.05827 -0.29346,0.04624 -0.01069,-0.01069 0.0064,-0.09144 0.03622,-0.171067 0.03788,-0.101195 0.09976,-0.180385 0.379787,-0.486079 0.173609,-0.189518 0.247353,-0.290131 0.288859,-0.394105 0.02438,-0.06106 0.02718,-0.0783 0.02726,-0.16774 1.71e-4,-0.165973 -0.0437,-0.273905 -0.156621,-0.385369 -0.07835,-0.07734 -0.178348,-0.134605 -0.314983,-0.180382 -0.136422,-0.0457 -0.230176,-0.05761 -0.411101,-0.05221 -0.217612,0.0065 -0.319523,0.03017 -0.494482,0.114865 -0.498462,0.241287 -0.84141,0.915371 -0.908296,1.785309 -0.0069,0.08983 -0.0063,0.09615 0.01182,0.114227 0.01052,0.01052 0.04744,0.02834 0.08203,0.0396 0.03459,0.01126 0.07944,0.02991 0.09966,0.04145 0.05114,0.02919 0.109909,0.09565 0.138487,0.15661 0.0208,0.04438 0.02411,0.06323 0.02411,0.137518 0,0.07723 -0.0028,0.09148 -0.02654,0.138473 -0.02519,0.04972 -0.07253,0.101052 -0.139863,0.151663 l -0.03034,0.0228 0.02135,0.04062 c 0.01882,0.03584 0.02135,0.05292 0.02135,0.144841 0,0.05811 -0.0051,0.120901 -0.01146,0.141935 -0.02743,0.09027 -0.110514,0.170526 -0.204902,0.197943 -0.02554,0.0074 -0.10285,0.02338 -0.171804,0.03546 -0.08111,0.01422 -0.131499,0.02752 -0.142727,0.03768 -0.0145,0.01313 -0.01739,0.02852 -0.01755,0.0936 -4.92e-4,0.205503 -0.02139,0.392696 -0.07189,0.644145 -0.0095,0.04729 -0.01567,0.08757 -0.0137,0.08953 0.01816,0.01816 0.368274,0.08397 0.534356,0.100445 0.131862,0.01308 0.598207,0.0051 0.729493,-0.01242 z M 11.346598,14.51051 c -0.16464,-0.01599 -0.467417,-0.06927 -0.48318,-0.08503 -0.0077,-0.0077 0.02031,-0.0435 0.04652,-0.05948 0.05588,-0.03408 0.278416,-0.02056 0.539714,0.03278 0.0816,0.01666 0.150558,0.03249 0.153244,0.03517 0.0087,0.0086 -0.02653,0.04028 -0.06492,0.05836 -0.04985,0.02349 -0.09383,0.02767 -0.191371,0.0182 z m 0.08156,-0.177399 c -0.01495,-0.0019 -0.123017,-0.01349 -0.240144,-0.02578 -0.290764,-0.03051 -0.365874,-0.04117 -0.373669,-0.05307 -0.01953,-0.0298 0.0064,-0.198179 0.04728,-0.306926 0.02575,-0.06851 0.03959,-0.07187 0.163278,-0.03965 0.146886,0.03828 0.324716,0.112673 0.460237,0.192544 0.134976,0.07955 0.310133,0.197235 0.303322,0.203797 -0.02567,0.02473 -0.250859,0.04291 -0.3603,0.02908 z m -0.04527,-0.13491 0.0356,-0.01487 -0.05406,-0.02262 c -0.02974,-0.01244 -0.120647,-0.05076 -0.202025,-0.08515 -0.08138,-0.03439 -0.151154,-0.06253 -0.155058,-0.06253 -0.0119,0 -0.06399,0.105246 -0.06399,0.129293 0,0.0124 0.0051,0.02669 0.01132,0.03177 0.0062,0.0051 0.0623,0.01572 0.124603,0.02366 0.0623,0.0079 0.125509,0.01614 0.140461,0.01823 0.0463,0.0065 0.125872,-0.0022 0.163155,-0.01778 z m 2.659663,-0.122087 c 0.235837,-0.01133 0.22822,-0.0078 0.267181,-0.12289 0.01503,-0.0444 0.03907,-0.100679 0.05342,-0.125064 0.03716,-0.06317 0.127861,-0.150134 0.191409,-0.183522 0.05894,-0.03097 0.165809,-0.06658 0.199783,-0.06658 0.01164,0 0.02341,-0.0037 0.02617,-0.0081 0.0058,-0.0093 -0.01159,-0.06147 -0.04594,-0.138002 -0.01939,-0.04321 -0.02794,-0.05327 -0.04532,-0.05327 -0.02208,0 -0.02707,0.01329 -0.01321,0.03517 0.0099,0.01563 -0.02355,0.118897 -0.03849,0.118849 -0.03537,-1.03e-4 -0.07631,-0.04554 -0.169608,-0.188179 l -0.09915,-0.151586 0.05358,-0.01814 c 0.05734,-0.01941 0.08633,-0.04071 0.104791,-0.07702 0.01259,-0.02475 0.09815,-0.320566 0.135628,-0.468933 0.0576,-0.227988 0.07544,-0.455348 0.04646,-0.592042 -0.023,-0.108518 -0.09575,-0.243978 -0.131031,-0.243978 -0.0089,0 -0.207495,0.08698 -0.441312,0.193279 -0.233818,0.106303 -0.461824,0.208896 -0.506681,0.227986 -0.178989,0.07617 -0.434357,0.198193 -0.533817,0.255076 -0.21157,0.121002 -0.392663,0.300223 -0.497806,0.49266 -0.0542,0.0992 -0.08722,0.186291 -0.119656,0.315654 -0.04332,0.172765 -0.04635,0.161028 0.04345,0.16858 0.09158,0.0077 0.12461,0.01591 0.410056,0.101918 0.342885,0.103312 0.380056,0.111646 0.497308,0.11149 0.16923,-2.4e-4 0.263416,-0.03387 0.418169,-0.149353 0.104437,-0.07794 0.252506,-0.175352 0.290958,-0.191419 0.07466,-0.0312 0.143572,-0.0036 0.220386,0.08836 0.06205,0.07427 0.07611,0.1032 0.07685,0.158241 8e-4,0.05907 -0.0131,0.07617 -0.0619,0.07617 -0.0453,0 -0.06876,-0.01512 -0.104849,-0.06757 -0.01497,-0.02177 -0.05025,-0.05925 -0.07839,-0.08329 l -0.05116,-0.04371 -0.02371,0.03158 c -0.115562,0.153915 -0.232144,0.225427 -0.445261,0.273123 -0.0833,0.01864 -0.118396,0.02125 -0.28529,0.02114 -0.160878,-1.03e-4 -0.206416,-0.0033 -0.294516,-0.02069 -0.152718,-0.03014 -0.261256,-0.06206 -0.397626,-0.116901 -0.06668,-0.02682 -0.123319,-0.04668 -0.125866,-0.04413 -0.0065,0.0065 0.03191,0.05511 0.09149,0.115639 0.06425,0.06528 0.07063,0.08817 0.04038,0.144909 l -0.02301,0.04315 0.04646,0.01738 c 0.203356,0.07606 0.426101,0.134331 0.590187,0.154405 0.04486,0.0055 0.09175,0.01145 0.104213,0.01325 0.05102,0.0074 0.443451,0.0051 0.625279,-0.0036 z m 0.531963,-0.07672 c 0.08255,-0.02452 0.147744,-0.08731 0.147655,-0.142238 -6.8e-5,-0.04599 -0.05224,-0.09995 -0.104179,-0.107758 -0.08124,-0.0122 -0.158744,0.06328 -0.191607,0.186601 -0.0066,0.02492 -0.01212,0.05505 -0.01218,0.06695 -1.02e-4,0.02117 0.0011,0.02151 0.05758,0.01573 0.03173,-0.0032 0.07796,-0.01193 0.102731,-0.01928 z m -2.049109,-0.140423 c 0.0081,0 0.01285,-0.0096 0.01285,-0.02621 0,-0.02047 -0.01221,-0.03751 -0.0558,-0.07787 -0.06376,-0.05903 -0.07656,-0.05513 -0.06269,0.01909 0.009,0.04805 0.05443,0.09971 0.07932,0.09016 0.0074,-0.0029 0.01926,-0.0052 0.02632,-0.0052 z m -1.710642,-0.199487 c 0.142445,-0.03989 0.185105,-0.05836 0.219198,-0.09487 0.01975,-0.02115 0.02307,-0.03411 0.02587,-0.100908 0.0047,-0.113395 -0.0015,-0.135169 -0.0467,-0.163908 -0.07408,-0.04706 -0.201458,-0.11107 -0.221369,-0.111241 -0.01118,-1.03e-4 -0.02597,0.0089 -0.03317,0.02022 -0.01722,0.02705 -0.05485,0.148847 -0.07274,0.235494 -0.01458,0.07058 -0.02003,0.251609 -0.0076,0.251565 0.0038,-1.3e-5 0.06516,-0.01637 0.136486,-0.03634 z M 10.577887,13.31461 c 0.01619,-0.047 0.04839,-0.154213 0.07157,-0.238257 0.03499,-0.126888 0.04041,-0.156584 0.03199,-0.175063 -0.0072,-0.01572 -0.01607,-0.02141 -0.03036,-0.01937 -0.01604,0.0023 -0.03391,0.03008 -0.08632,0.134284 -0.07017,0.1395 -0.100199,0.242327 -0.08868,0.303713 0.0064,0.03435 0.04708,0.08858 0.06252,0.08343 0.0054,-0.0018 0.0231,-0.04173 0.03929,-0.08873 z m -0.182761,-0.26238 c 0.02323,-0.137485 0.148199,-0.253818 0.331046,-0.308166 0.03721,-0.01106 0.07302,-0.02512 0.07959,-0.03125 0.008,-0.0075 0.01751,-0.07614 0.02895,-0.209748 0.01969,-0.230019 0.03547,-0.342927 0.0686,-0.490819 0.07088,-0.316427 0.197622,-0.627474 0.410414,-1.007242 0.04031,-0.07195 0.07198,-0.13214 0.07037,-0.133752 -0.0064,-0.0064 -0.151054,0.04598 -0.23004,0.08333 -0.2919,0.137998 -0.527597,0.383487 -0.696054,0.724971 -0.0907,0.183862 -0.142499,0.362469 -0.167993,0.579266 -0.01365,0.116081 -0.0056,0.424546 0.0141,0.539893 0.02264,0.132603 0.06456,0.289985 0.07723,0.289985 0.0042,0 0.01039,-0.01641 0.01378,-0.03647 z m 0.800573,0.01027 c 0.06389,-0.0455 0.10272,-0.148866 0.08195,-0.218186 -0.01023,-0.03413 -0.01737,-0.04093 -0.07089,-0.06742 -0.100248,-0.04961 -0.206557,-0.08981 -0.221917,-0.08392 -0.01827,0.007 -0.03461,0.04839 -0.0277,0.07015 0.0029,0.009 0.03751,0.03502 0.07699,0.05779 0.103268,0.05956 0.112011,0.08407 0.05552,0.155589 -0.0511,0.06469 -0.05946,0.08313 -0.04537,0.100115 0.01802,0.02172 0.113604,0.0128 0.151418,-0.01412 z m 1.767041,-0.910986 c 0.192945,-0.05836 0.279286,-0.09711 0.928009,-0.416493 0.412586,-0.203125 0.623382,-0.289403 0.825589,-0.337908 0.03955,-0.0095 0.06922,-0.02136 0.06925,-0.02773 1.02e-4,-0.01853 -0.405608,-0.418453 -0.507452,-0.500229 -0.166301,-0.133531 -0.323226,-0.228611 -0.445087,-0.269672 -0.07353,-0.02477 -0.20874,-0.0229 -0.258315,0.0036 -0.04903,0.02619 -0.0793,0.06333 -0.09378,0.115032 -0.01036,0.037 -0.0095,0.05333 0.0076,0.136969 0.0257,0.126093 0.02622,0.273236 0.0013,0.372201 -0.0099,0.03943 -0.03614,0.108381 -0.05828,0.153238 -0.06028,0.122148 -0.120116,0.199712 -0.332063,0.430446 -0.16953,0.184558 -0.264139,0.296261 -0.284971,0.336457 -0.02141,0.04131 -0.0209,0.05799 0.0015,0.04939 0.0063,-0.0024 0.07229,-0.02279 0.146684,-0.04529 z m 2.187644,-0.301525 c 0.01869,-0.02745 0.03399,-0.05257 0.03399,-0.0558 7e-6,-0.0032 -0.02256,-0.0045 -0.05015,-0.0027 -0.07021,0.0043 -0.08009,-0.0059 -0.07437,-0.07714 0.0045,-0.05583 0.0043,-0.05647 -0.02081,-0.06198 -0.02438,-0.0054 -0.04792,-9e-4 -0.151465,0.02858 l -0.04758,0.01355 v 0.05293 c 0,0.112791 0.04148,0.249584 0.09258,0.305337 l 0.01809,0.01973 0.08286,-0.08626 c 0.04558,-0.04744 0.09816,-0.108729 0.116847,-0.136184 z m -3.645198,-1.246837 c 0.399111,-0.156072 0.761091,-0.225188 1.110098,-0.211963 0.27555,0.01044 0.460489,0.05221 0.674191,0.152279 0.05182,0.02426 0.09577,0.04412 0.09765,0.04412 0.01268,0 -0.03565,-0.06738 -0.07827,-0.10911 -0.219387,-0.214806 -0.818321,-0.289863 -1.332444,-0.166979 -0.359948,0.08603 -0.686501,0.259155 -0.838324,0.444435 l -0.0355,0.04332 0.149191,-0.07767 c 0.08206,-0.04272 0.196086,-0.09601 0.253404,-0.118426 z"
       id="path1" /></g></svg>
