<?xml version="1.0" encoding="utf-8"?>
<!-- Generator: Adobe Illustrator 16.0.0, SVG Export Plug-In . SVG Version: 6.00 Build 0)  -->
<!DOCTYPE svg PUBLIC "-//W3C//DTD SVG 1.1//EN" "http://www.w3.org/Graphics/SVG/1.1/DTD/svg11.dtd">
<svg version="1.1" id="Calque_1" xmlns="http://www.w3.org/2000/svg" xmlns:xlink="http://www.w3.org/1999/xlink" x="0px" y="0px"
	 width="516.537px" height="169.111px" viewBox="0 0 516.537 169.111" enable-background="new 0 0 516.537 169.111"
	 xml:space="preserve">
<g>
	<path fill="#FFED00" d="M159.684,84.493c0,41.785-33.881,75.671-75.674,75.671c-41.792,0-75.673-33.886-75.673-75.671
		c0-41.796,33.882-75.674,75.673-75.674C125.803,8.819,159.684,42.697,159.684,84.493"/>
</g>
<polygon points="130.814,41.675 126.699,41.675 37.207,125.943 41.322,125.943 "/>
<g>
	<path d="M73.55,60.243c0,9.47-7.671,17.136-17.14,17.136c-9.466,0-17.138-7.666-17.138-17.136c0-9.468,7.672-17.141,17.138-17.141
		C65.878,43.103,73.55,50.775,73.55,60.243"/>
</g>
<rect x="87.959" y="92.013" width="12.329" height="33.329"/>
<g>
	<path d="M129.035,108.512l11.718-11.727c-3.108-3.195-7.442-5.189-12.256-5.189c-9.47,0-17.141,7.683-17.141,17.145
		c0,9.464,7.671,17.144,17.141,17.144c4.929,0,9.336-2.114,12.465-5.445L129.035,108.512z"/>
</g>
<rect x="194.452" y="68.352" width="2.858" height="30.137"/>
<polygon points="237.45,98.488 234.634,98.488 216.914,72.448 216.914,98.488 214.139,98.488 214.139,68.352 216.914,68.352 
	234.888,94.139 234.634,68.352 237.45,68.352 "/>
<g>
	<path d="M254.291,98.488V68.352h8.026c3.201,0.042,5.974,0.042,8.155,0.9c4.31,1.7,7.551,7.042,7.551,14.084
		c0,5.637-2.046,10.369-5.375,12.977c-2.731,2.135-5.465,2.176-10.547,2.176H254.291z M257.194,95.928h4.526
		c2.474,0,5.932,0.044,7.938-0.897c2.902-1.325,5.508-5.55,5.508-11.567c0-5.163-2.05-10.117-5.723-11.738
		c-1.661-0.727-3.284-0.727-7-0.727h-5.249V95.928z"/>
	<path d="M295.465,68.352v17.93c0,3.287,0,5.589,1.453,7.47c0.979,1.365,3.243,2.86,7,2.86c1.067,0,2.518-0.084,3.929-0.639
		c2.305-0.896,3.497-2.351,4.14-5c0.254-1.021,0.299-2.813,0.299-3.927V68.352h2.86v13.705c0,8.363,0,11.225-2.562,13.998
		c-2.179,2.352-5.422,3.203-8.582,3.203c-5.078,0-9.219-2.18-10.671-6.532c-0.681-2.177-0.681-3.845-0.681-10.412V68.352H295.465z"
		/>
	<path d="M348.038,75.653c-0.256-0.773-0.598-1.794-1.279-2.69c-1.494-2.094-3.928-3.031-6.534-3.031
		c-3.243,0-7.086,1.367-7.086,5.381c0,3.672,3.373,4.733,5.079,5.248c0.855,0.259,5.166,1.367,6.108,1.709
		c1.621,0.509,6.954,2.261,6.954,7.979c0,4.229-3.541,9.008-11.269,9.008c-3.2,0-5.509-0.81-7.087-1.836
		c-2.306-1.534-3.588-3.758-4.095-6.53l2.857-1.494c0.041,1.194,0.169,2.432,0.726,3.499c1.365,2.819,4.481,3.882,7.599,3.882
		c5.805,0,8.367-3.197,8.367-6.401c0-2.175-1.021-3.413-1.835-4.05c-1.366-1.155-3.115-1.579-7.086-2.609
		c-4.269-1.104-9.092-2.686-9.092-8.278c0-5.936,5.249-7.858,9.945-7.858c7.727,0,9.689,4.954,10.374,6.62L348.038,75.653z"/>
</g>
<polygon points="372.781,98.488 369.923,98.488 369.923,70.869 360.444,70.869 360.444,68.352 382.303,68.352 382.303,70.869 
	372.781,70.869 "/>
<g>
	<path d="M417.579,98.491h-3.585l-9.521-13.362h-7.083v13.362h-2.86V68.308h8.448c5.255,0.044,6.581,0.044,8.455,0.686
		c4.957,1.748,5.293,6.486,5.293,7.98c0,3.158-1.364,4.908-2.26,5.805c-2.178,2.052-5.039,2.223-6.66,2.351L417.579,98.491z
		 M397.391,82.654h7.083c1.968,0,3.807-0.042,5.086-0.3c3.202-0.641,4.347-3.073,4.347-5.505c0-2.946-1.444-5.166-4.392-5.766
		c-0.857-0.174-1.234-0.174-5.041-0.215h-7.083V82.654z"/>
</g>
<rect x="432.03" y="68.352" width="2.858" height="30.137"/>
<polygon points="472.459,98.488 451.718,98.488 451.718,68.352 471.395,68.352 471.395,70.998 454.574,70.998 454.574,81.714 
	469.813,81.714 469.813,84.36 454.574,84.36 454.574,95.84 472.459,95.84 "/>
<g>
	<path d="M503.472,75.653c-0.257-0.773-0.597-1.794-1.279-2.69c-1.495-2.094-3.928-3.031-6.535-3.031
		c-3.243,0-7.084,1.367-7.084,5.381c0,3.672,3.372,4.733,5.077,5.248c0.855,0.259,5.166,1.367,6.109,1.709
		c1.62,0.509,6.954,2.261,6.954,7.979c0,4.229-3.541,9.008-11.269,9.008c-3.2,0-5.511-0.81-7.087-1.836
		c-2.305-1.534-3.588-3.758-4.095-6.53l2.857-1.494c0.041,1.194,0.169,2.432,0.725,3.499c1.367,2.819,4.482,3.882,7.6,3.882
		c5.804,0,8.367-3.197,8.367-6.401c0-2.175-1.023-3.413-1.836-4.05c-1.365-1.155-3.115-1.579-7.084-2.609
		c-4.271-1.104-9.092-2.686-9.092-8.278c0-5.936,5.249-7.858,9.943-7.858c7.728,0,9.691,4.954,10.377,6.62L503.472,75.653z"/>
	<path d="M220.063,139.422c-1.11,1.755-2.177,3.463-4.568,5.124c-1.279,0.897-4.228,2.649-8.41,2.649
		c-7.984,0-14.429-5.805-14.429-16.01c0-8.921,6.063-15.963,14.6-15.963c3.459,0,6.531,1.193,8.794,2.986
		c2.092,1.665,3.074,3.329,3.928,4.82L214,126.02c-0.423-0.979-0.938-2.006-2.259-3.117c-1.453-1.152-2.905-1.494-4.145-1.494
		c-4.866,0-7.423,4.528-7.423,9.562c0,6.616,3.37,9.906,7.423,9.906c3.93,0,5.507-2.734,6.537-4.486L220.063,139.422z"/>
	<path d="M233.278,116.16h13.575c3.158,0.041,7.086,0.085,9.86,3.076c1.407,1.575,2.392,3.968,2.392,6.7
		c0,6.061-4.145,7.556-6.194,8.321l6.958,12.041h-8.32l-5.978-10.759h-4.739v10.759h-7.554V116.16z M240.832,121.795v8.152h6.233
		c1.066-0.041,4.525-0.127,4.525-4.141c0-3.84-2.774-3.969-4.353-4.012H240.832z"/>
</g>
<path d="M273.597,116.16h22.286v5.848h-14.774v5.464h13.793v5.722h-13.793v7.172h16.094v5.934h-23.605V116.16z M283.459,108.007
	h7.683l-6.188,4.907h-4.099L283.459,108.007z"/>
<g>
	<path d="M327.325,116.162l11.098,30.137h-8.023l-1.492-4.825h-11.104l-1.495,4.825h-8.023l11.188-30.137H327.325z M323.268,123.329
		c-0.382,1.54-0.811,3.116-1.237,4.657c-0.64,2.26-1.794,5.807-2.476,8.066h7.642L323.268,123.329z"/>
</g>
<polygon points="345.41,116.115 368.637,116.115 368.637,122.091 360.824,122.091 360.824,146.299 353.266,146.299 353.266,122.091 
	345.41,122.091 "/>
<rect x="382.017" y="116.16" width="7.513" height="30.139"/>
<polygon points="422.967,116.16 430.994,116.16 420.533,146.299 412.851,146.299 402.519,116.16 410.542,116.16 416.773,137.587 "/>
<polygon points="443.985,116.16 466.271,116.16 466.271,122.008 451.5,122.008 451.5,127.472 465.282,127.472 465.282,133.193 
	451.5,133.193 451.5,140.367 467.593,140.367 467.593,146.299 443.985,146.299 "/>
<g>
	<path d="M486.607,137.246c0.771,0.854,1.409,1.537,2.906,2.352c2.006,1.066,4.055,1.452,5.804,1.452
		c2.989,0,5.551-1.411,5.551-3.505c0-2.39-3.031-2.773-5.254-3.072c-1.66-0.215-3.327-0.425-4.947-0.768
		c-1.835-0.387-8.114-1.708-8.114-8.197c0-7.771,6.919-10.076,12.125-10.076c6.958,0,10.716,3.375,13.32,5.722l-5.548,3.969
		c-0.938-0.938-1.794-1.749-2.991-2.435c-1.066-0.597-2.988-1.32-4.906-1.32c-2.991,0-4.484,1.709-4.484,3.156
		c0,2.308,2.562,2.648,3.844,2.821c3.197,0.385,7.513,1.194,9.219,1.791c3.457,1.284,5.205,3.97,5.205,7.389
		c0,2.176-0.808,4.567-2.39,6.404c-2.731,3.155-7.084,4.053-11.31,4.053c-8.496,0-11.869-3.929-13.745-6.104L486.607,137.246z"/>
	<path d="M212.541,49.942c-2.944,3.461-6.574,3.931-9.053,3.931c-3.712,0-6.784-1.154-9.26-4.101
		c-2.135-2.478-3.801-6.447-3.801-11.779c0-8.329,4.1-15.795,13.061-15.795c9.991,0,12.938,8.794,12.897,15.621
		C216.342,42.431,214.974,47.087,212.541,49.942 M203.488,24.674c-7.682,0-10.031,7.598-10.031,13.363
		c0,5.587,2.221,13.272,9.907,13.272c9.305,0,9.947-11.017,9.947-13.448C213.354,32.398,211.132,24.674,203.488,24.674"/>
	<path d="M233.352,22.962v17.931c0,3.288,0,5.597,1.45,7.473c0.983,1.367,3.245,2.856,7,2.856c1.07,0,2.523-0.083,3.927-0.64
		c2.309-0.896,3.505-2.346,4.146-4.99c0.256-1.03,0.298-2.82,0.298-3.928V22.962h2.857v13.703c0,8.37,0,11.229-2.559,14.006
		c-2.176,2.346-5.423,3.202-8.579,3.202c-5.081,0-9.226-2.177-10.674-6.533c-0.685-2.18-0.685-3.84-0.685-10.419V22.962H233.352z"/>
</g>
<polygon points="290.195,53.103 269.447,53.103 269.447,22.964 289.125,22.964 289.125,25.611 272.309,25.611 272.309,36.327 
	287.548,36.327 287.548,38.972 272.309,38.972 272.309,50.458 290.195,50.458 "/>
<g>
	<path d="M320.779,30.264c-0.258-0.766-0.598-1.793-1.279-2.688c-1.496-2.092-3.929-3.03-6.536-3.03
		c-3.243,0-7.084,1.364-7.084,5.376c0,3.671,3.372,4.74,5.078,5.254c0.856,0.251,5.166,1.364,6.108,1.706
		c1.62,0.515,6.956,2.264,6.956,7.98c0,4.226-3.543,9.009-11.272,9.009c-3.2,0-5.509-0.811-7.087-1.835
		c-2.305-1.536-3.587-3.758-4.093-6.531l2.854-1.492c0.044,1.193,0.176,2.432,0.727,3.498c1.367,2.815,4.481,3.887,7.599,3.887
		c5.809,0,8.369-3.204,8.369-6.403c0-2.181-1.021-3.417-1.836-4.058c-1.365-1.147-3.115-1.579-7.085-2.603
		c-4.272-1.113-9.094-2.689-9.094-8.283c0-5.934,5.249-7.853,9.944-7.853c7.73,0,9.696,4.95,10.379,6.615L320.779,30.264z"/>
</g>
<polygon points="345.098,53.103 342.237,53.103 342.237,25.482 332.759,25.482 332.759,22.964 354.615,22.964 354.615,25.482 
	345.098,25.482 "/>
</svg>
